<?xml version="1.0" encoding="UTF-8" standalone="no"?>
<!-- Created with Inkscape (http://www.inkscape.org/) -->

<svg
   xmlns:dc="http://purl.org/dc/elements/1.1/"
   xmlns:cc="http://creativecommons.org/ns#"
   xmlns:rdf="http://www.w3.org/1999/02/22-rdf-syntax-ns#"
   xmlns:svg="http://www.w3.org/2000/svg"
   xmlns="http://www.w3.org/2000/svg"
   xmlns:sodipodi="http://sodipodi.sourceforge.net/DTD/sodipodi-0.dtd"
   xmlns:inkscape="http://www.inkscape.org/namespaces/inkscape"
   id="svg6717"
   version="1.1"
   inkscape:version="0.48.4 r9939"
   width="1715"
   height="1307.5"
   xml:space="preserve"
   sodipodi:docname="Bieretikett_final.ai"><metadata
     id="metadata6723"><rdf:RDF><cc:Work
         rdf:about=""><dc:format>image/svg+xml</dc:format><dc:type
           rdf:resource="http://purl.org/dc/dcmitype/StillImage" /><dc:title></dc:title></cc:Work></rdf:RDF></metadata><defs
     id="defs6721"><clipPath
       clipPathUnits="userSpaceOnUse"
       id="clipPath6733"><path
         d="m 730.477,813.216 c 93.909,-60.523 92.175,-113.678 91.879,-124.835 l 0,0 c -1.258,-47.392 -51.397,-76.719 -73.624,-51.315 l 0,0 c 0,0 22.898,16.069 23.579,41.697 l 0,0 c 0,0 -16.757,-10.417 -25.415,-12.059 l 0,0 c 0,0 11.755,19.538 7.439,54.485 l 0,0 c 0,0 -9.449,-17.353 -38.647,-30.81 l 0,0 c 0,0 11.895,24.779 2.051,49.011 l 0,0 c 0,0 1.45,-30.002 -67.513,-60.007 l 0,0 c -68.963,-30.006 -48.848,-62.375 -48.848,-62.375 l 0,0 c 0,0 13.962,14.058 36.746,3.32 l 0,0 c 30.825,-14.53 16.762,-69.176 -33.392,-67.844 l 0,0 c -48.829,1.296 -79.469,55.249 -78.368,96.715 l 0,0 c 0.455,17.144 3.151,48.637 35.047,82.506 l 0,0 c 25.37,26.94 56.136,40.691 63.467,71.031 l 0,0 C 590.284,772.348 528.868,753.547 491.245,700.969 l 0,0 C 457.452,653.744 466.32,589.855 471.654,570.133 l 0,0 c 24.191,-89.439 104.74,-156.298 202.111,-158.884 l 0,0 c 118.842,-3.154 218.947,89.356 222.102,208.199 l 0,0 c 4.776,179.914 -165.758,203.545 -213.212,243.746 l 0,0 c 0,0 -0.546,-18.806 47.822,-49.978 m -90.94,-158.94 c 5.819,2.494 10.733,2.501 12.877,-2.825 l 0,0 c 1.409,-3.503 -1.413,-7.127 -4.4,-7.739 l 0,0 c -3.644,-0.747 -7.07,0.861 -12.81,2.775 l 0,0 c -5.368,1.789 -7.291,1.526 -7.291,1.526 l 0,0 c 0,0 5.894,3.806 11.624,6.263"
         id="path6735" /></clipPath><clipPath
       clipPathUnits="userSpaceOnUse"
       id="clipPath6745"><path
         d="m 629.145,580.229 243.579,0 0,-239.297 -243.579,0 0,239.297 z"
         id="path6747" /></clipPath><clipPath
       clipPathUnits="userSpaceOnUse"
       id="clipPath6761"><path
         d="m 700.823,580.217 135.021,0 0,-194.43 -135.021,0 0,194.43 z"
         id="path6763" /></clipPath><clipPath
       clipPathUnits="userSpaceOnUse"
       id="clipPath6777"><path
         d="m 0,1046 1372,0 L 1372,0 0,0 0,1046 z"
         id="path6779" /></clipPath><clipPath
       clipPathUnits="userSpaceOnUse"
       id="clipPath6789"><path
         d="m 724.902,231.162 27.361,0 0,-27.361 -27.361,0 0,27.361 z"
         id="path6791" /></clipPath><clipPath
       clipPathUnits="userSpaceOnUse"
       id="clipPath6805"><path
         d="m 761.367,227.248 19.533,0 0,-19.533 -19.533,0 0,19.533 z"
         id="path6807" /></clipPath><clipPath
       clipPathUnits="userSpaceOnUse"
       id="clipPath7103"><path
         d="m 0,1046 1372,0 L 1372,0 0,0 0,1046 z"
         id="path7105" /></clipPath></defs><sodipodi:namedview
     pagecolor="#ffffff"
     bordercolor="#666666"
     borderopacity="1"
     objecttolerance="10"
     gridtolerance="10"
     guidetolerance="10"
     inkscape:pageopacity="0"
     inkscape:pageshadow="2"
     inkscape:window-width="1920"
     inkscape:window-height="1137"
     id="namedview6719"
     showgrid="false"
     inkscape:zoom="0.36099426"
     inkscape:cx="1080.872"
     inkscape:cy="743.12181"
     inkscape:window-x="-8"
     inkscape:window-y="-8"
     inkscape:window-maximized="1"
     inkscape:current-layer="g6725" /><g
     id="g6725"
     inkscape:groupmode="layer"
     inkscape:label="Bieretikett_final"
     transform="matrix(1.25,0,0,-1.25,0,1307.5)"><path
       d="m 0,0 1372,0 0,1046 L 0,1046 0,0 z"
       style="fill:#ffffff;fill-opacity:1;fill-rule:nonzero;stroke:none"
       id="path6727" /><g
       id="g6729"><g
         id="g6731"
         clip-path="url(#clipPath6733)"><g
           id="g6737"
           transform="translate(682.6553,863.1934)"><path
             d="m 0,0 c 0,0 -0.546,-18.805 47.821,-49.978 93.909,-60.523 92.176,-113.678 91.88,-124.834 -1.259,-47.392 -51.397,-76.719 -73.625,-51.315 0,0 22.899,16.069 23.579,41.697 0,0 -16.757,-10.417 -25.414,-12.06 0,0 11.755,19.539 7.439,54.486 0,0 -9.45,-17.353 -38.647,-30.81 0,0 11.895,24.778 2.051,49.01 0,0 1.45,-30.002 -67.513,-60.007 -68.963,-30.005 -48.848,-62.375 -48.848,-62.375 0,0 13.962,14.06 36.746,3.32 30.825,-14.529 16.761,-69.175 -33.392,-67.843 -48.829,1.296 -79.469,55.249 -78.368,96.714 0.455,17.145 3.151,48.638 35.047,82.507 25.369,26.94 56.136,40.691 63.467,71.031 -34.594,-30.389 -96.011,-49.189 -133.633,-101.767 -33.794,-47.226 -24.925,-111.114 -19.591,-130.836 24.191,-89.44 104.74,-156.298 202.111,-158.884 118.842,-3.155 218.947,89.356 222.102,208.198 C 217.988,-63.832 47.453,-40.2 0,0"
             style="fill:#f37820;fill-opacity:1;fill-rule:nonzero;stroke:none"
             id="path6739" /></g><g
           id="g6741"><g
             id="g6743" /><g
             id="g6749"><g
               clip-path="url(#clipPath6745)"
               id="g6751"><g
                 transform="translate(872.7246,526.5)"
                 id="g6753"><path
                   d="m 0,0 c -6.198,-67.894 -39.113,-154.537 -80.211,-171.56 -128.071,-53.031 -163.369,61.596 -163.369,61.596 112.321,62.394 89.04,163.693 89.04,163.693 C -97.307,-26.896 0,0 0,0"
                   style="fill:#f48120;fill-opacity:1;fill-rule:nonzero;stroke:none"
                   id="path6755" /></g></g></g></g><g
           id="g6757"><g
             id="g6759" /><g
             id="g6765"><g
               clip-path="url(#clipPath6761)"
               id="g6767"><g
                 transform="translate(835.8437,457.3652)"
                 id="g6769"><path
                   d="m 0,0 c 0,0 -48.44,-76.401 -135.021,-71.338 0,0 62.439,75.393 17.374,194.19 C -117.022,121.464 -76.137,33.038 0,0"
                   style="fill:#f89a1f;fill-opacity:1;fill-rule:nonzero;stroke:none"
                   id="path6771" /></g></g></g></g></g></g><g
       id="g6773"><g
         id="g6775"
         clip-path="url(#clipPath6777)"><g
           id="g6781"
           transform="translate(714.1963,217.4814)"><path
             d="m 0,0 c 0,-8.081 -6.551,-14.632 -14.631,-14.632 -8.081,0 -14.632,6.551 -14.632,14.632 0,8.081 6.551,14.632 14.632,14.632 C -6.551,14.632 0,8.081 0,0 z"
             style="fill:none;stroke:#f37820;stroke-opacity:1;stroke-width:3;stroke-linecap:butt;stroke-linejoin:miter;stroke-miterlimit:10;stroke-dasharray:none"
             id="path6783" /></g><g
           id="g6785"><g
             id="g6787" /><g
             id="g6793"><g
               clip-path="url(#clipPath6789)"
               opacity="0.800003"
               id="g6795"><g
                 transform="translate(751.2637,217.4814)"
                 id="g6797"><path
                   d="m 0,0 c 0,-7.003 -5.678,-12.681 -12.681,-12.681 -7.004,0 -12.681,5.678 -12.681,12.681 0,7.004 5.677,12.681 12.681,12.681 C -5.678,12.681 0,7.004 0,0 z"
                   style="fill:none;stroke:#f37820;stroke-opacity:1;stroke-width:2;stroke-linecap:butt;stroke-linejoin:miter;stroke-miterlimit:10;stroke-dasharray:none"
                   id="path6799" /></g></g></g></g><g
           id="g6801"><g
             id="g6803" /><g
             id="g6809"><g
               clip-path="url(#clipPath6805)"
               opacity="0.5"
               id="g6811"><g
                 transform="translate(780.4004,217.4814)"
                 id="g6813"><path
                   d="m 0,0 c 0,-5.117 -4.149,-9.267 -9.268,-9.267 -5.117,0 -9.266,4.15 -9.266,9.267 0,5.118 4.149,9.267 9.266,9.267 C -4.149,9.267 0,5.118 0,0 z"
                   style="fill:none;stroke:#f37820;stroke-opacity:1;stroke-width:1;stroke-linecap:butt;stroke-linejoin:miter;stroke-miterlimit:10;stroke-dasharray:none"
                   id="path6815" /></g></g></g></g><g
           id="g6817"
           transform="translate(353.79,864.2383)"><path
             d="M 0,0 C 0.459,0.33 1.13,0.239 1.874,-0.25 2.206,-1.11 2.234,-1.651 1.958,-1.873 1.847,-1.962 1.792,-2.006 1.681,-2.095 1.087,-2.364 0.26,-2.078 -0.067,-1.434 -0.349,-0.879 -0.244,-0.175 0,0 m -40.821,26.711 c 1.456,0.766 2.648,1.534 3.578,2.311 0.319,0.267 0.479,0.4 0.798,0.666 1.464,1.219 3.313,2.853 5.558,4.886 0.762,0.156 2.75,1.441 5.991,3.797 3.728,0.209 5.962,-0.1 6.419,-0.801 0.132,-0.203 0.044,-0.892 -0.24,-1.982 -2.237,-0.799 -3.556,-1.37 -3.957,-1.688 -0.341,-0.271 -0.511,-0.406 -0.852,-0.678 0.486,-0.611 0.863,-1.809 1.143,-3.587 -0.28,-0.099 -0.419,-0.149 -0.699,-0.248 0.103,-0.128 0.235,-0.124 0.401,0.009 0.316,-0.599 0.474,-0.898 0.79,-1.496 0.652,-0.814 2.769,-2.407 3.787,-4.226 0.356,-0.635 0.31,-1.692 0.165,-2.311 -0.608,-0.364 -0.912,-0.547 -1.519,-0.913 -0.409,-0.333 -0.613,-0.499 -1.022,-0.832 0.061,-0.076 0.092,-0.114 0.154,-0.19 0.493,-0.606 1.703,-0.668 3.626,-0.203 0.948,-0.449 1.747,-1.08 2.4,-1.893 -0.522,-0.42 -0.783,-0.63 -1.304,-1.052 -0.192,-0.156 -0.351,-0.159 -0.473,-0.007 -0.868,-0.704 -0.242,-2.869 0.24,-2.953 0.156,-0.028 0.682,0.241 0.867,0.013 0.477,0.85 0.893,1.417 1.246,1.703 0.231,-0.09 0.346,-0.135 0.577,-0.224 0.209,-0.259 0.313,-0.389 0.521,-0.647 0.612,-0.761 1.328,-1.815 2.151,-3.16 2.447,-0.954 3.784,-1.594 4.028,-1.9 0.085,-0.106 0.128,-0.16 0.213,-0.267 0.733,-0.915 0.437,-2.645 0.382,-4.145 -0.077,-2.108 0.953,-4.276 1.428,-4.818 1.74,-1.988 3.148,-3.4 3.805,-4.208 0.349,-0.431 0.632,-1.124 0.851,-2.079 1.79,-0.515 2.824,-0.957 3.11,-1.311 0.345,-0.425 0.516,-0.638 0.86,-1.063 0.964,-1.19 0.402,-3.498 -1.615,-6.948 0.093,-0.6 -0.735,-2.086 -2.457,-4.479 0.209,-0.249 -0.01,-0.796 -0.657,-1.646 -1.458,-1.026 -2.624,-1.924 -3.501,-2.683 -0.516,-0.576 -0.773,-0.864 -1.287,-1.442 -0.964,-0.366 -1.869,-0.922 -2.711,-1.665 -1.156,-1.976 -2.011,-3.227 -2.587,-3.745 -0.572,-0.514 -0.857,-0.771 -1.427,-1.287 -3.868,-2.317 -6.427,-2.368 -7.255,-1.951 -0.35,0.177 -2.466,-1.095 -5.041,-2.12 -1.398,-0.557 -3.135,0.026 -4.462,1.416 -2.013,0.552 -5.226,2.224 -6.41,4.341 -0.15,0.267 -0.21,0.656 -0.323,0.773 -0.677,0.705 -1.314,1.221 -1.912,1.55 -4.316,4.875 -6.472,7.316 -10.775,12.201 -0.677,0.343 -1.896,1.43 -3.656,3.262 -0.081,0.084 -0.122,0.126 -0.203,0.21 -0.135,0.142 -0.999,0.553 -2.596,1.229 -0.909,2.29 -1.569,3.664 -1.997,4.11 -1.221,0.59 -3.442,3.24 -5.044,3.756 -0.901,0.29 -3.159,-0.947 -4.719,-2.339 -0.435,-0.564 -0.652,-0.846 -1.086,-1.411 -1.961,-1.112 -3.711,-1.51 -4.462,-0.991 -1.121,0.775 -1.117,3.288 0.213,6.334 0.591,0.417 0.887,0.625 1.478,1.04 0.114,0.111 0.17,0.166 0.284,0.277 2.045,1.998 2.953,3.112 2.704,3.37 4.606,3.709 9.102,7.416 13.498,11.133 0.144,-0.16 0.216,-0.239 0.36,-0.399 0.148,0.266 0.222,0.399 0.37,0.664 1.157,0.474 2.628,0.593 4.409,0.349 0.222,-0.248 0.332,-0.372 0.553,-0.62 0.152,-0.17 -0.063,-0.971 -0.633,-2.402 -1.318,-0.923 -2.344,-1.722 -3.079,-2.392 -0.22,-2.007 -1.107,-4.165 -2.651,-6.493 0.265,-0.475 0.397,-0.712 0.663,-1.186 0.08,-0.086 0.12,-0.128 0.2,-0.214 0.533,-0.384 0.8,-0.576 1.334,-0.96 0.165,-0.87 0.427,-1.495 0.781,-1.875 0.633,-0.452 0.949,-0.678 1.58,-1.131 0.133,-0.143 0.229,-0.433 0.287,-0.869 1.275,-0.992 2.033,-1.621 2.277,-1.882 1.665,-1.787 3.835,-4.46 6.525,-8.007 1.2,-0.617 2.11,-1.26 2.731,-1.927 0.446,-1.144 0.837,-1.892 1.17,-2.248 1.102,-0.603 1.652,-0.904 2.75,-1.509 0.576,-0.799 0.864,-1.198 1.442,-1.995 0.369,-0.101 0.622,-0.222 0.755,-0.365 0.677,0.631 1.016,0.946 1.695,1.573 0.056,-0.241 0.084,-0.361 0.14,-0.601 0.117,0.267 0.175,0.401 0.293,0.669 0.089,0.082 0.134,0.124 0.223,0.206 0.238,-0.259 0.358,-0.388 0.595,-0.647 0.204,-0.522 -0.094,-1.15 -0.894,-1.892 -0.302,-0.281 -0.453,-0.421 -0.755,-0.702 0.204,-0.397 0.307,-0.596 0.511,-0.993 1.199,-1.286 2.875,-1.813 5.02,-1.604 0.176,0.163 2.025,-0.21 5.518,-1.166 2.512,1.057 3.834,1.495 3.965,1.35 0.183,0.384 0.364,0.655 0.54,0.812 0.38,0.341 2.063,0.889 5.035,1.594 0.194,0.171 0.291,0.256 0.485,0.426 0.187,0.38 0.369,0.648 0.546,0.802 -0.437,0.501 -0.655,0.751 -1.092,1.252 -0.65,-0.568 -1.383,-0.714 -2.202,-0.437 -0.064,0.073 -0.097,0.11 -0.161,0.184 -0.43,0.489 0.12,1.803 1.675,3.927 0.208,0.18 1.116,0.279 2.719,0.282 0.107,0.093 0.161,0.139 0.268,0.231 0.715,0.614 1.02,1.558 0.916,2.837 1.139,2.677 0.974,4.911 -0.529,6.711 -0.73,0.874 -2.675,2.283 -3.72,3.891 -0.826,1.271 -1.242,2.995 -1.7,3.546 -1.166,0.893 -1.874,1.235 -2.123,1.026 -0.576,1.386 -1.384,2.705 -2.427,3.955 -0.626,0.751 -0.939,1.126 -1.565,1.876 -0.938,1.125 -2.226,2.51 -3.868,4.151 -0.096,1.151 -0.307,1.928 -0.641,2.329 -1.456,1.032 -3.76,2.581 -4.931,4.343 -0.322,0.484 -0.665,1.292 -1.165,1.892 -1.731,2.075 -3.945,1.997 -6.615,-0.278 -0.488,-0.416 -1.858,-0.387 -4.123,0.069 -1.957,-1.686 -3.752,-1.596 -5.399,0.295 0.636,1.117 2.262,3.382 4.925,6.754"
             style="fill:#231f20;fill-opacity:1;fill-rule:nonzero;stroke:none"
             id="path6819" /></g><g
           id="g6821"
           transform="translate(392.3428,891.0864)"><path
             d="M 0,0 C 0.552,0.367 1.432,-0.008 2.633,-1.126 2.726,-1.69 2.692,-2.024 2.53,-2.131 1.534,-2.519 0.755,-2.295 0.196,-1.455 0.077,-1.275 0.017,-1.186 -0.102,-1.007 -0.062,-0.604 -0.041,-0.403 0,0 m -13.855,17.238 c 0.101,0.068 0.151,0.102 0.252,0.17 0.453,-0.677 1.328,-1.365 2.621,-2.067 -0.224,-0.408 -0.335,-0.612 -0.558,-1.019 -0.101,-0.068 -0.151,-0.101 -0.251,-0.169 -0.135,-0.09 -0.547,-0.053 -1.24,0.109 -0.923,1.734 -1.196,2.727 -0.824,2.976 m -32.895,9.054 c 2.773,1.812 6.525,4.057 10.554,6.86 0.463,0.322 0.694,0.482 1.157,0.803 0.771,0.533 1.761,1.315 2.973,2.339 1.309,0.578 3.809,1.497 6.344,3.036 2.616,1.587 4.211,3.062 4.496,3.248 1.654,0.647 2.623,1.056 2.909,1.24 0.644,0.786 0.967,1.178 1.615,1.96 4.248,1.931 6.713,2.312 7.38,1.232 0.43,0.266 1.324,-0.541 2.678,-2.422 -0.524,-0.745 -1.211,-1.381 -2.063,-1.912 -0.39,-0.244 -1.488,-0.812 -3.293,-1.723 -1.511,-1.466 -2.264,-2.203 -3.761,-3.682 -1.705,-0.908 -3.083,-1.712 -4.134,-2.404 -0.904,-0.595 -1.355,-0.893 -2.257,-1.493 -2.865,-1.907 -3.995,-3.313 -3.411,-4.176 0.12,-0.178 0.181,-0.267 0.301,-0.445 1.295,-1.089 1.985,-1.704 2.075,-1.839 0.849,-1.629 1.356,-2.563 1.52,-2.806 0.865,-0.909 1.342,-1.431 1.433,-1.566 0.334,-1.307 0.696,-2.243 1.079,-2.809 1.251,-1.041 2.029,-1.793 2.338,-2.252 0.248,-1.169 0.566,-2.036 0.949,-2.602 1.771,-2.615 3.555,-3.31 5.36,-2.101 0.692,-0.241 1.12,-0.485 1.283,-0.729 1.444,-3.108 1.495,-5.11 0.144,-6.024 0.022,-0.245 0.033,-0.367 0.055,-0.612 0.416,-0.615 0.624,-0.923 1.039,-1.538 0.128,-0.189 0.536,-0.227 1.224,-0.116 0.52,0.783 0.947,1.285 1.276,1.506 0.199,-0.299 0.577,-0.26 1.136,0.112 0.292,-0.439 0.438,-0.658 0.731,-1.098 0.432,-0.65 1.01,-1.127 1.729,-1.43 C -1.907,2.447 -1.86,2.165 -1.752,2.002 -2.065,1.794 -2.221,1.69 -2.534,1.48 -4.469,2.968 -5.737,3.509 -6.326,3.11 -6.588,2.934 -6.694,2.527 -6.646,1.892 -6.537,1.73 -6.482,1.649 -6.373,1.487 -6.281,1.352 -5.716,0.87 -4.682,0.037 l 0.137,-0.203 c 0.128,-0.189 0.511,-1.109 1.155,-2.758 1.217,-1.103 2.023,-1.953 2.424,-2.547 0.415,-0.616 0.622,-0.924 1.037,-1.539 0.236,-0.1 0.353,-0.151 0.588,-0.251 -0.333,-0.265 -0.417,-0.518 -0.253,-0.761 0.096,0.064 0.144,0.097 0.24,0.161 -0.055,0.081 -0.083,0.122 -0.138,0.203 0.777,0.092 1.402,0.297 1.881,0.618 0.599,1.108 1.775,2.54 3.537,4.28 3.493,1.627 7.155,2.713 10.96,3.249 1.511,0.676 2.585,0.495 3.218,-0.53 0.226,-0.365 0.339,-0.548 0.565,-0.914 0.342,-0.555 0.326,-1.502 -0.04,-2.842 0.16,0.099 0.283,0.08 0.369,-0.058 -0.228,-0.564 -0.388,-0.875 -0.484,-0.935 -0.273,-0.032 -0.41,-0.048 -0.682,-0.081 0.062,-0.1 0.093,-0.15 0.155,-0.249 0.191,0.12 0.33,0.111 0.416,-0.027 -0.114,-0.072 -0.172,-0.108 -0.287,-0.18 -0.574,-0.36 -1.883,-0.967 -3.921,-1.843 -0.594,-1.036 -1.3,-1.819 -2.124,-2.352 -0.095,-0.061 -1.116,-0.39 -3.063,-1.004 -0.818,-0.965 -1.169,-1.53 -1.061,-1.693 -0.272,-0.039 -0.409,-0.059 -0.681,-0.099 -1.646,-1.091 -2.466,-1.64 -4.103,-2.748 -0.376,-0.255 -0.667,-0.57 -0.87,-0.944 -1.526,-0.448 -4.581,-1.99 -9.121,-4.738 -1.064,-1.594 -1.697,-2.473 -1.912,-2.627 -1.388,-0.157 -2.437,-0.496 -3.147,-1.013 -1.14,-0.833 -2.054,-2.945 -3.08,-4.212 -1.949,-2.406 -5.625,-2.813 -7.006,-1 -0.201,0.265 -0.301,0.397 -0.503,0.661 -0.631,0.829 -0.741,2.18 -0.314,4.057 -0.745,0.987 -0.623,1.857 0.372,2.605 1.306,0.589 1.959,0.881 3.265,1.46 1.964,2.102 4.088,4.192 6.369,6.263 1.165,0.568 1.748,0.849 2.914,1.409 -0.149,0.213 -0.057,0.617 0.283,1.213 -1.087,1.147 -1.734,1.866 -1.94,2.16 -0.954,2.036 -1.366,3.378 -1.241,4.022 -0.212,-0.148 -0.318,-0.223 -0.53,-0.372 -0.18,0.257 -0.269,0.385 -0.449,0.641 -0.465,0.461 -0.698,0.691 -1.165,1.151 -0.127,0.867 -1.034,2.715 -2.72,5.55 0.358,0.251 0.334,0.67 -0.075,1.259 -2.178,0.823 -3.619,1.54 -4.307,2.171 -0.136,1.735 -0.32,2.779 -0.563,3.126 -0.068,0.096 -0.101,0.144 -0.168,0.24 -0.644,0.456 -0.966,0.683 -1.612,1.137 -2.194,3.91 -4.646,8.774 -7.322,14.609 -0.189,0.273 -0.284,0.409 -0.473,0.682 -0.613,0.883 -1.944,0.814 -3.988,-0.229 -2.776,-0.005 -5.691,-1.098 -8.703,-3.295 -1.184,-2.192 -2.051,-3.504 -2.629,-3.933 -0.122,-0.091 -0.184,-0.136 -0.306,-0.227 -1.878,-0.948 -3.171,-1.698 -3.882,-2.236 -0.203,-0.153 -0.256,-0.295 -0.158,-0.425 -0.576,-0.165 -0.864,-0.249 -1.439,-0.417 -0.959,2.193 -1.435,3.29 -2.384,5.487 0.346,1.608 2.703,4.388 6.891,7.123"
             style="fill:#231f20;fill-opacity:1;fill-rule:nonzero;stroke:none"
             id="path6823" /></g><g
           id="g6825"
           transform="translate(422.7866,965.2603)"><path
             d="m 0,0 c 0.985,0.097 1.683,0.249 2.095,0.456 1.71,1.078 2.776,1.712 3.19,1.918 1.552,0.549 2.422,0.864 2.611,0.956 0.67,0.458 1.006,0.686 1.679,1.142 0.98,0.474 2.616,0.268 4.89,-0.635 C 14.507,3.749 14.528,3.705 14.57,3.616 14.653,3.44 14.583,3.298 14.357,3.191 14.723,3.004 14.947,2.822 15.031,2.646 15.464,1.733 15.093,0.676 13.929,-0.533 13.471,-0.536 12.009,-0.907 10.004,-1.838 5.286,-4.029 1.48,-6.364 -1.065,-7.681 -1.25,-7.776 -1.501,-8.016 -1.815,-8.4 c -0.09,0.173 -2.28,-0.746 -6.541,-2.843 -0.294,-0.158 -1.759,-1.323 -4.059,-2.475 -1.022,-0.512 -2.017,-0.829 -2.528,-1.112 -0.366,-0.202 -0.843,-1.674 -1.4,-4.415 -0.399,-0.223 -0.334,-0.803 0.193,-1.74 0.921,-0.827 1.38,-1.242 2.298,-2.071 0.57,-2.369 0.973,-3.75 1.196,-4.147 3.061,-2.277 4.831,-3.435 5.346,-3.447 0.19,-0.342 0.793,-0.305 1.809,0.108 3.394,3.285 6.214,5.484 8.394,6.632 4.753,2.502 8.566,3.726 11.381,3.748 1.187,0.592 3.145,0.581 5.853,-0.057 1.794,0.874 4.731,-0.462 8.731,-4.046 1.088,-0.278 1.895,-0.98 2.421,-2.099 0.906,-1.928 1.359,-2.892 2.265,-4.82 0.664,-1.415 0.852,-4.059 0.621,-7.921 0.07,-0.147 -0.085,-0.311 -0.463,-0.491 0.195,-0.145 0.294,-0.217 0.489,-0.362 0.05,-2.936 -1.21,-6.018 -1.816,-8.258 -0.57,-2.101 -1.062,-4.389 -2.602,-5.16 -1.607,-0.806 -2.223,-3.076 -2.801,-5.256 -0.672,-2.535 -2.873,-4.79 -4.772,-5.799 0.351,-0.661 -1.805,-2.01 -3.673,-4.083 -0.858,-0.951 -2.006,-2.729 -3.572,-4.087 0.428,-0.769 0.03,-1.492 -1.189,-2.179 -3.929,-1.205 -6.024,-1.623 -6.285,-1.173 -0.107,0.186 -0.161,0.28 -0.269,0.466 -0.473,0.818 -0.299,2.144 0.543,3.978 -0.058,0.102 -0.087,0.153 -0.145,0.254 0.252,0.01 0.379,0.014 0.631,0.024 -0.203,0.131 -0.305,0.196 -0.51,0.327 -0.436,0.763 1.579,2.559 6.099,5.276 2.115,2.483 3.184,3.718 5.347,6.174 0.575,1.154 2.37,2.839 2.978,4.271 0.585,1.378 1.426,4.227 3.621,6.358 0.406,0.205 0.466,1.22 0.189,3.048 1.702,0.853 2.214,2.392 1.536,4.636 1.134,0.559 0.989,3.243 -0.404,8.069 0.174,0.085 0.112,0.47 -0.207,1.094 -0.813,1.591 -3.081,3.289 -6.695,4.992 0.176,0.087 0.23,0.203 0.157,0.35 -0.19,-0.202 -0.286,-0.304 -0.476,-0.507 -3.661,0.987 -7.177,1.003 -10.504,0.055 -0.854,-0.331 -1.281,-0.497 -2.134,-0.832 -5.312,-3.47 -7.735,-5.618 -7.362,-6.305 -1.125,-1.689 -2.353,-4.386 -3.629,-8.092 -0.352,-0.198 -0.528,-0.297 -0.879,-0.495 -3.379,-1.421 -5.615,-1.201 -6.722,0.717 -0.108,0.187 -0.162,0.28 -0.269,0.466 -0.114,0.197 -0.377,1.412 -1.083,2.478 -0.722,1.091 -3.888,4.655 -8.319,10.48 -0.18,0.309 -0.296,0.958 -0.344,1.947 -1.373,1.875 -2.413,3.418 -3.116,4.63 -0.059,0.101 -0.089,0.152 -0.148,0.253 -2.125,3.661 -2.586,5.843 -1.381,6.538 1.075,0.619 1.612,0.927 2.689,1.54 0.458,0.897 1.021,1.534 1.682,1.907 0.243,0.136 0.364,0.204 0.606,0.341 1.234,-0.129 2.307,0.06 3.227,0.57 1.077,1.007 1.784,1.599 2.116,1.781 0.334,0.183 1.028,0.359 2.085,0.526 C -5.367,-3.565 -0.774,-0.795 0,0"
             style="fill:#231f20;fill-opacity:1;fill-rule:nonzero;stroke:none"
             id="path6827" /></g><g
           id="g6829"
           transform="translate(482.229,963.2778)"><path
             d="m 0,0 c -1.085,-0.39 -1.691,-0.42 -1.824,-0.087 -3.564,-1.793 -5.578,-3.222 -6.064,-4.231 -3.744,-1.325 -5.672,-4.412 -5.497,-8.928 0.152,-3.945 2.245,-4.989 6.051,-3.006 0.332,0.315 0.605,0.518 0.82,0.608 0.21,-0.301 0.5,-0.392 0.872,-0.272 0.381,0.116 0.571,0.173 0.952,0.289 2.513,0.932 3.7,1.564 3.554,1.927 0.216,0.087 0.36,0.04 0.433,-0.141 0.597,0.325 0.896,0.487 1.494,0.81 0.634,0.233 0.951,0.348 1.585,0.579 0.823,0.137 1.234,0.204 2.057,0.337 1.24,0.975 2.889,1.929 4.945,2.849 0.063,0.267 1.704,1.3 4.952,3.048 -0.041,0.11 -0.061,0.165 -0.102,0.275 -0.18,0.488 -0.362,0.699 -0.543,0.632 0.542,0.554 0.814,0.831 1.359,1.382 -0.924,0.828 -1.388,1.241 -2.317,2.066 C 11.59,-0.025 9.754,0.743 7.22,0.416 L 6.358,2.701 C 4.804,2.776 3.811,2.715 3.41,2.575 2.899,2.396 1.834,1.572 0.295,0.062 0.177,0.038 0.118,0.025 0,0 M -3.105,7.597 C -2.454,7.646 0.331,8.49 2.818,8.674 4.398,8.792 6.384,7.91 7.521,7.255 7.333,7.186 7.274,7.06 7.343,6.876 7.648,7.198 7.915,7.401 8.14,7.484 9.327,7.61 11.002,7.166 13.146,6.139 17.854,5.724 21.33,2.177 23.62,-4.405 c 0.589,-1.692 -0.64,-3.556 -3.648,-5.638 -0.618,-0.118 -0.928,-0.178 -1.546,-0.297 -2.422,-0.877 -4.367,-2.277 -5.82,-4.181 -1.364,-0.514 -2.104,-0.886 -2.225,-1.106 -0.915,0.033 -1.661,-0.062 -2.234,-0.284 -0.66,-0.716 -0.989,-1.075 -1.645,-1.794 -1.416,-0.17 -2.356,-0.351 -2.819,-0.536 -0.428,-0.17 -1.462,-0.686 -3.096,-1.56 -2.357,-0.008 -4.624,-0.241 -6.031,-0.955 -1.711,-0.869 -2.524,-2.181 -2.179,-2.99 -0.951,-0.122 -1.207,-0.694 -0.77,-1.711 -0.238,-1.095 1.377,-1.994 2.822,-3.097 2.266,-1.73 5.453,-2.727 7.149,-2.667 0.517,0.018 2.698,-0.132 5.825,0.316 0.097,-0.243 0.724,-0.432 1.436,-0.268 1.635,0.375 4.088,2.195 6.785,4.37 1.189,0.452 1.967,1.823 2.355,4.122 0.353,0.131 1.274,1.154 2.79,3.057 0.056,-0.153 0.19,-0.191 0.403,-0.114 -0.034,0.092 -0.05,0.138 -0.084,0.23 -0.213,-0.077 -0.353,-0.024 -0.42,0.159 0.49,0.511 0.734,0.766 1.226,1.276 0.066,-0.184 0.188,-0.244 0.366,-0.18 -0.08,0.22 -0.119,0.331 -0.199,0.551 0.94,0.339 1.41,0.507 2.352,0.84 1.336,-0.148 2.235,-0.887 2.699,-2.207 0.078,-0.222 0.117,-0.333 0.195,-0.554 0.572,-1.629 -0.409,-3.415 -2.907,-5.388 -0.571,-1.487 -1.246,-2.617 -2.029,-3.39 -0.277,0.044 -0.415,0.066 -0.693,0.109 0.048,-0.128 0.071,-0.192 0.118,-0.32 0.209,0.076 0.342,0.038 0.398,-0.114 -1.108,-0.963 -3.252,-2.431 -6.401,-4.446 -0.332,-0.128 -0.497,-0.192 -0.828,-0.32 -0.263,0.003 -0.395,0.004 -0.658,0.007 0.078,-0.201 0.117,-0.301 0.195,-0.501 -0.683,-0.265 -1.024,-0.398 -1.706,-0.666 -2.901,-0.51 -7.829,-3.327 -10.687,-3.385 -0.934,-0.019 -3.341,0.752 -5.879,0.689 -0.219,0.508 -2.347,1.603 -6.447,3.211 -2.021,1.209 -4.378,3.741 -7.082,7.596 -1.346,2.995 -2.018,4.492 -3.364,7.486 -0.701,3.755 -0.963,6.437 -0.805,8.04 1.157,2.187 1.728,4.122 1.692,5.811 3.645,5.562 11.084,12.387 16.671,12.801"
             style="fill:#231f20;fill-opacity:1;fill-rule:nonzero;stroke:none"
             id="path6831" /></g><g
           id="g6833"
           transform="translate(551.5786,967.542)"><path
             d="m 0,0 c 0.244,0.062 0.366,0.092 0.61,0.153 0.105,-0.417 0.157,-0.625 0.262,-1.042 -0.221,-0.055 -0.515,-0.214 -0.881,-0.473 -0.163,0.18 -0.245,0.27 -0.408,0.451 -0.024,0.095 -0.037,0.142 -0.061,0.237 C -0.493,-0.309 -0.333,-0.083 0,0 m -20.735,-30.066 c 1.093,-0.07 1.744,-0.075 1.953,-0.011 0.955,0.497 1.73,0.833 2.325,1.013 0.273,0.082 0.409,0.123 0.682,0.204 0.944,0.283 1.5,0.141 1.667,-0.42 -0.327,-0.436 -0.75,-0.733 -1.273,-0.889 -0.49,-0.147 -0.939,-0.231 -1.351,-0.254 -0.669,-0.305 -1.352,-0.563 -2.047,-0.777 -0.063,-0.019 -0.095,-0.029 -0.157,-0.049 -0.349,-0.106 -1.291,-0.141 -2.83,-0.111 -0.438,-0.138 -0.657,-0.206 -1.096,-0.345 -0.209,-0.066 -0.347,0.01 -0.416,0.226 1.015,0.568 1.524,0.851 2.543,1.413 M 2.611,26.872 c 4.424,0.031 7.081,-0.476 7.986,-1.444 1.24,0.273 2.905,-1.283 4.954,-4.676 0.192,0.041 0.305,-0.019 0.34,-0.178 0.199,-0.936 0.298,-1.405 0.498,-2.341 0.129,-0.605 0.556,-1.428 0.84,-2.268 0.397,-1.172 -2.347,-3.167 -7.837,-5.524 -3.723,0.152 -5.751,0.846 -6.063,2.144 -0.265,-0.063 -0.689,0.371 -1.276,1.302 -0.063,1.257 -0.178,2.234 -0.346,2.93 -0.05,0.209 -0.076,0.314 -0.126,0.523 -1.292,1.163 -3.398,1.513 -5.851,0.776 -0.326,-0.098 -1.463,-1.322 -3.341,-3.625 -0.859,-0.29 -2.824,-2.385 -4.409,-5.816 -1.171,-2.535 -2.043,-5.183 -3.039,-6.916 0.059,-0.207 0.087,-0.31 0.145,-0.517 0.204,-0.721 0.597,-1.338 1.18,-1.851 -0.048,-1.401 0.085,-2.648 0.394,-3.745 0.176,-0.627 0.502,-1.364 0.977,-2.212 -0.175,-0.928 -0.087,-2.003 0.257,-3.226 1.157,-4.106 3.187,-5.744 6.098,-4.955 2.351,0.638 3.528,0.949 5.884,1.559 0.181,0.046 0.909,0.42 2.194,1.116 0.368,0.093 0.552,0.14 0.92,0.233 2.746,0.69 5.347,-0.593 7.75,-3.837 0.072,-0.304 0.109,-0.456 0.181,-0.76 -0.096,-0.392 -0.124,-0.666 -0.086,-0.824 -0.343,-0.082 -0.514,-0.123 -0.856,-0.205 -0.979,0.3 -1.885,0.393 -2.542,0.187 -0.696,-0.218 -1.187,-0.947 -1.377,-2.001 -0.178,-0.044 -0.442,-0.194 -0.794,-0.45 -4.062,0.222 -6.861,0.133 -8.307,-0.238 -0.211,-0.054 -0.841,-0.781 -1.867,-2.175 -0.34,-0.093 -0.509,-0.139 -0.849,-0.233 -0.096,0.345 -0.979,0.931 -2.663,1.746 -0.363,-0.101 -0.544,-0.152 -0.907,-0.254 -1.722,-0.824 -3.33,-2.115 -4.804,-3.872 -1.335,-0.018 -2.251,-0.105 -2.744,-0.253 -2.412,-0.721 -3.615,-1.09 -6.02,-1.843 -0.737,-0.231 -1.467,-0.921 -2.179,-2.071 -0.973,0.271 -2.799,0.423 -5.484,0.429 -0.694,0.216 -1.119,0.556 -1.273,1.019 0.356,0.805 0.53,1.873 0.521,3.208 0.419,0.514 2.102,1.535 5.073,3.021 -0.059,0.186 0.498,0.466 1.674,0.833 2.436,0.761 3.655,1.133 6.099,1.863 0.834,0.724 1.118,1.538 0.85,2.444 -0.324,1.092 -1.091,2.48 -1.464,3.744 -0.365,1.237 -0.452,2.719 -0.73,3.655 -0.872,1.474 -1.746,3.337 -2.619,5.593 0.327,1.728 0.417,2.857 0.26,3.388 -0.722,0.941 -1.177,1.723 -1.363,2.348 -0.26,0.874 -0.073,1.405 0.563,1.592 -2.472,5.348 -4.032,7.927 -4.638,7.745 -0.387,-0.115 -0.58,-0.173 -0.967,-0.289 -2.655,-0.799 -4.645,-1.606 -5.973,-2.397 -0.783,-0.123 -1.174,-0.185 -1.957,-0.311 -0.249,-0.079 -0.374,-0.118 -0.623,-0.198 -0.831,-0.265 -2.098,-0.858 -3.792,-1.789 -1.542,-0.128 -2.478,0.297 -2.807,1.286 -0.555,3.178 0.58,5.24 3.405,6.149 0.989,-0.011 1.483,-0.017 2.47,-0.032 1.427,0.793 2.832,1.402 4.209,1.826 0.368,0.113 0.552,0.169 0.919,0.281 7.578,2.045 11.642,2.051 12.148,0.264 1.753,-0.791 3.043,-1.075 3.883,-0.843 1.489,0.41 2.747,1.949 3.806,4.623 0.153,0.041 2.626,1.256 7.483,3.547 0.039,-0.159 0.155,-0.213 0.349,-0.165 -0.063,0.253 0.184,0.583 0.74,0.989 1.397,0.347 2.095,0.517 3.493,0.854 0.893,0.215 2.035,0.589 3.43,1.117"
             style="fill:#231f20;fill-opacity:1;fill-rule:nonzero;stroke:none"
             id="path6835" /></g><g
           id="g6837"
           transform="translate(611.5884,989.5283)"><path
             d="M 0,0 C 0.392,0.051 0.588,0.076 0.979,0.125 1.004,-0.068 1.017,-0.166 1.041,-0.359 1.086,-0.715 0.897,-0.919 0.477,-0.973 0.339,-0.991 0.27,-1 0.132,-1.017 -0.291,-1.072 -0.565,-0.883 -0.57,-0.566 -0.574,-0.271 -0.345,-0.044 0,0 m -19.846,11.967 c 1.175,0.072 1.762,0.107 2.936,0.172 2.602,0.606 3.968,0.903 4.086,0.921 5.799,-0.024 10.041,-0.758 12.719,-2.094 -0.197,-0.024 -0.282,-0.133 -0.257,-0.327 0.195,0.025 0.281,0.134 0.257,0.327 0.649,-0.035 0.974,-0.054 1.623,-0.092 0.314,0.039 0.978,0.76 2.008,2.162 0.765,0.209 1.147,0.313 1.913,0.52 C 7.142,13.655 8.071,13.019 8.223,11.66 8.059,10.776 7.978,10.335 7.815,9.452 8.229,7.893 8.498,6.546 8.624,5.414 8.453,4.628 8.368,4.235 8.199,3.45 8.598,1.659 8.855,0.23 8.976,-0.837 8.095,-1.624 6.47,-2.152 4.101,-2.44 3.071,-0.368 2.151,1.061 1.347,1.846 1.578,1.875 1.684,1.969 1.663,2.131 1.524,2.114 1.455,2.105 1.316,2.088 1.337,1.926 1.25,1.833 1.058,1.809 -0.869,4.65 -3.931,5.804 -8.083,5.213 c -0.016,0.116 -0.024,0.174 -0.041,0.29 0.319,0.598 0.478,0.896 0.8,1.494 C -7.385,7.423 -7.415,7.636 -7.475,8.061 -7.733,8.025 -7.861,8.007 -8.119,7.97 -8.875,7.745 -9.252,7.631 -10.006,7.403 c -1.527,0.37 -2.409,0.534 -2.642,0.498 -3.604,-2.023 -5.494,-3.079 -5.728,-3.117 -2.074,-0.019 -3.112,-0.033 -5.189,-0.072 -1.924,-1.354 -2.539,-3.93 -1.865,-7.712 0.252,-1.411 2.12,-2.278 5.586,-2.654 0.028,-0.162 0.361,-0.287 1.002,-0.379 1.108,0.382 2.024,0.63 2.748,0.746 0.042,-0.258 0.407,-0.479 1.101,-0.665 0.616,0.098 0.923,0.146 1.539,0.242 0.802,0.849 1.263,1.282 1.377,1.299 0.366,0.056 0.549,0.084 0.915,0.139 1.143,-1.112 3.513,-1.394 7.128,-0.897 0.493,0.068 1.301,0.26 2.421,0.574 1.673,-0.632 2.937,-1.387 3.384,-1.481 1.61,-0.34 4.148,-0.195 5.146,-1.487 3.968,-1.764 6.123,-4.556 6.526,-8.311 0.046,-0.427 0.069,-0.641 0.115,-1.068 0.038,-0.357 -0.312,-1.85 -1.028,-4.483 0.15,-1.36 -1.398,-2.881 -4.597,-4.609 -0.838,-1.051 -2.162,-1.687 -3.981,-1.92 0.046,-0.356 -1.966,-1.126 -5.999,-2.383 -0.182,-0.815 -0.609,-1.434 -1.285,-1.86 -0.216,-0.031 -0.324,-0.047 -0.541,-0.078 -1.046,-0.151 -2.695,0.167 -4.962,0.937 -0.851,0.231 -1.566,0.3 -2.145,0.208 -0.508,-0.08 -1.247,-0.561 -2.214,-1.445 -1.131,0.343 -2.973,0.485 -5.529,0.404 -0.198,0.494 -1.022,0.616 -2.467,0.358 -0.239,-0.043 -0.358,-0.064 -0.597,-0.108 -1.193,-1.87 -1.831,-2.817 -1.939,-2.837 -2.983,-0.155 -4.581,0.275 -4.787,1.329 -0.622,1.074 -0.978,1.833 -1.066,2.281 0.137,1.141 0.206,1.711 0.347,2.853 -0.123,0.633 -0.185,0.95 -0.308,1.583 -0.349,1.789 -0.866,2.883 -1.555,3.28 0.023,0.581 0.035,0.872 0.059,1.454 -0.267,1.362 -0.4,2.042 -0.667,3.404 -0.243,1.246 0.436,2.027 2.04,2.332 2.238,0.426 5.313,-5.036 8.927,-8.001 3.149,-2.583 9.119,-3.128 10.906,-2.851 0.657,0.102 1.137,0.258 1.441,0.469 1.12,0.005 2.026,0.057 2.72,0.159 2.081,0.305 4.368,1.351 6.897,3.132 1.433,0.189 2.6,1.241 3.523,3.161 1.171,0.539 1.694,1.339 1.565,2.406 -0.118,0.97 -0.177,1.455 -0.295,2.424 -0.126,1.034 -0.935,1.758 -2.431,2.161 -0.607,-0.075 -0.91,-0.114 -1.516,-0.192 -0.451,-0.392 -0.677,-0.589 -1.127,-0.982 -0.262,0.083 -0.393,0.125 -0.656,0.209 0.016,-0.116 0.023,-0.174 0.039,-0.291 0.187,0.025 0.292,-0.043 0.313,-0.205 -0.225,-0.029 -0.337,-0.044 -0.561,-0.074 -0.336,-0.044 -0.865,0.788 -1.593,2.498 -0.495,-0.067 -0.743,-0.1 -1.238,-0.168 -0.188,-0.026 -0.971,-0.313 -2.344,-0.87 -0.135,-0.019 -0.202,-0.028 -0.337,-0.048 -2.017,-0.057 -4.103,0.737 -6.283,2.378 -0.248,-0.038 -0.372,-0.057 -0.621,-0.096 -0.981,-1.372 -1.83,-2.194 -2.461,-2.316 -0.979,-0.19 -2.798,0.307 -5.25,1.31 -2.443,-0.415 -3.759,-0.092 -3.954,0.999 -4.193,1.074 -6.399,2.023 -6.569,2.918 -0.115,0.608 -0.57,1.351 -1.369,2.226 0.19,0.036 0.268,0.151 0.231,0.343 -0.496,-0.094 -0.99,0.513 -1.275,1.695 -1.085,4.498 -0.546,7.308 1.121,7.62 1.08,2.786 3.623,4.106 5.68,4.899 0.903,0.348 3.037,1.638 6.087,2.959 -0.032,0.193 0.051,0.306 0.247,0.337"
             style="fill:#231f20;fill-opacity:1;fill-rule:nonzero;stroke:none"
             id="path6839" /></g><g
           id="g6841"
           transform="translate(721.9883,976.9761)"><path
             d="M 0,0 C 0.406,-0.098 0.598,-0.292 0.574,-0.584 0.557,-0.799 0.549,-0.906 0.531,-1.12 0.05,-1.199 -0.189,-1.239 -0.67,-1.319 -0.788,-1.094 -0.847,-0.981 -0.965,-0.757 -0.944,-0.498 -0.623,-0.244 0,0 m -7.229,-11.714 c 0.242,-0.016 0.362,-0.025 0.604,-0.041 0.398,-0.093 0.588,-0.285 0.567,-0.578 -0.366,-0.189 -0.548,-0.285 -0.915,-0.475 -0.117,0.223 -0.175,0.334 -0.293,0.558 0.015,0.214 0.022,0.321 0.037,0.536 M -29.726,41.32 c -7.477,0.155 -11.216,-0.336 -11.217,-1.247 -0.647,-1.66 -0.966,-2.719 -0.966,-3.174 0,-0.215 0,-0.322 10e-4,-0.537 0.001,-2.085 0.761,-3.499 2.27,-4.252 1.073,-0.004 1.721,-1.327 1.94,-3.966 0.273,-0.36 0.588,-0.541 0.942,-0.544 -0.002,-0.313 -0.004,-0.469 -0.006,-0.782 -0.021,-2.377 2.515,-4.236 7.551,-5.684 1.145,-0.026 1.718,-0.04 2.863,-0.072 5.334,1.154 7.987,2.054 8.069,2.601 0.049,0.323 1.261,1.086 3.286,2.247 1.526,0.875 3.183,4.295 2.618,7.056 -0.062,0.301 -0.267,0.633 -0.258,0.797 0.198,-0.011 0.304,0.082 0.315,0.277 -0.8,0.042 -1.526,0.696 -2.186,1.967 -0.427,0.314 -2.156,0.662 -5.196,1.008 -4.73,1.291 -7.101,2.494 -7.07,3.698 0.203,-0.005 0.305,0.073 0.31,0.237 -0.122,0.003 -0.182,0.005 -0.303,0.008 -0.005,-0.164 -0.128,-0.241 -0.37,-0.235 0.003,0.129 -0.313,0.399 -0.95,0.804 -0.657,-0.082 -0.986,-0.123 -1.643,-0.207 M -42.167,6.374 c 1.028,-3.06 1.528,-4.819 1.527,-5.274 -0.488,10e-4 -0.889,-0.505 -0.957,-1.319 -0.34,-4.041 1.018,-6.638 3.05,-6.65 3.013,-0.446 4.516,-0.68 7.515,-1.171 0.845,0.198 1.267,0.296 2.114,0.491 1.691,-0.237 2.98,-0.373 3.865,-0.402 1.139,1.006 4.801,2.42 11.077,4.077 1.301,2.051 2.227,4.117 2.763,6.207 -0.704,2.702 -1.061,4.052 -1.787,6.751 -0.604,0.162 -1.364,1.262 -2.303,3.296 -0.373,0.214 -0.791,0.332 -1.251,0.353 -0.368,0.017 -0.552,0.025 -0.921,0.042 -0.23,0.01 -0.349,-0.082 -0.358,-0.277 -0.882,0.039 -1.786,0.874 -2.726,2.507 -0.261,0.206 -1.645,0.691 -3.391,0.659 -1.704,-0.032 -3.004,-0.449 -3.197,-0.443 -0.54,0.014 -3.106,0.454 -7.219,0.68 -1.958,0.107 -4.371,-1.99 -6.891,-6.059 -0.61,-1.921 -0.911,-3.077 -0.91,-3.468 m 7.928,42.445 c 2.406,-0.746 3.949,-1.137 4.646,-1.152 0.27,-0.005 0.405,-0.008 0.674,-0.014 0.735,-0.016 2.292,0.129 4.675,0.416 1.952,-0.418 3.272,-0.645 3.967,-0.671 l 0.009,0.245 c 0.724,-0.353 2.938,-0.773 6.631,-1.312 3.976,-5.638 6.482,-9.078 7.693,-10.263 -0.014,-0.214 -0.021,-0.321 -0.035,-0.536 -0.211,-1.063 -0.318,-1.595 -0.529,-2.658 0.124,-1.835 0.334,-3.643 0.072,-4.507 -0.218,-0.725 -1.128,-2.49 -1.905,-4.922 -2.289,-2.112 -3.434,-3.553 -3.475,-4.3 -0.032,-0.554 0.45,-1.378 1.433,-2.478 -0.129,-0.208 -0.192,-0.312 -0.32,-0.52 0.115,-0.006 0.173,-0.009 0.289,-0.016 0.01,0.162 0.13,0.237 0.361,0.223 0.529,-0.91 1.117,-1.386 1.774,-1.427 -0.129,-0.207 -0.194,-0.311 -0.322,-0.518 0.261,0.101 0.392,0.152 0.654,0.253 1.81,-1.32 3.238,-3.293 4.277,-5.913 C -3.062,8.706 -2.571,8.327 -2.204,7.614 -2.219,7.419 -2.321,7.329 -2.511,7.343 -2.412,7.12 -2.363,7.009 -2.266,6.786 -3.351,6.05 -3.923,5.208 -3.99,4.267 c -0.098,-1.364 0.267,-5.718 -0.808,-7.385 -0.603,-0.935 -3.056,-4.143 -4.317,-5.293 -1.004,-0.915 -3.097,-1.755 -3.168,-2.99 -0.012,-0.215 -0.019,-0.322 -0.03,-0.537 0.547,-0.684 0.802,-1.318 0.768,-1.903 -0.025,-0.429 -0.038,-0.644 -0.063,-1.073 -0.064,-1.072 -0.584,-1.579 -1.564,-1.524 -2.015,1.71 -3.765,2.593 -5.224,2.659 -0.831,0.038 -1.246,0.056 -2.077,0.09 -2.574,-0.415 -3.964,-0.634 -4.183,-0.627 -0.218,0.007 -1.303,0.224 -3.263,0.634 -0.7,0.019 -1.05,0.028 -1.75,0.044 -0.238,0.103 -0.357,0.155 -0.596,0.257 -0.006,-0.292 -1.112,-0.704 -3.304,-1.257 -0.182,0.003 -0.757,0.371 -1.733,1.098 -0.584,0.008 -2.573,-0.062 -5.963,-0.255 -1.181,0.332 -1.772,0.496 -2.956,0.822 -0.723,-0.004 -1.084,-0.006 -1.807,-0.013 -1.419,-0.54 -2.126,-0.813 -3.538,-1.363 -1.574,0.496 -3.48,0.898 -5.715,1.196 -0.01,0.357 -1.789,0.578 -5.339,0.609 -0.211,0.708 -0.424,1.059 -0.645,1.05 0.231,1.606 0.747,2.47 1.397,2.447 1.277,-0.045 2.474,-0.21 3.32,-0.185 2.191,0.618 3.29,0.998 3.286,1.161 0.782,-0.341 1.871,-0.496 3.271,-0.472 0.243,0.003 0.365,0.005 0.608,0.009 1.325,0.021 2.306,1.008 2.954,2.968 0.134,0.002 0.2,0.002 0.334,0.004 -10e-4,0.162 -0.113,0.243 -0.337,0.24 2.014,2.624 3.042,4.139 3.041,4.563 -0.001,0.26 -1.249,0.725 -2.143,1.551 -0.85,0.785 -1.258,2.006 -1.26,2.136 0.994,2.355 1.497,3.953 1.491,4.8 -0.008,1.009 -0.736,1.624 -2.188,1.835 -1.042,1.161 -1.583,2.732 -1.612,4.718 -0.005,0.39 0.288,1.29 0.89,2.698 -0.662,3.313 -1.007,5.521 -1.023,6.629 -0.043,2.995 0.564,5.74 1.848,8.228 -0.143,-0.002 -0.214,-0.002 -0.357,-0.003 -0.438,-0.006 -0.656,0.072 -0.659,0.236 1.03,1.615 1.548,2.421 2.593,4.031 -2.427,2.977 -3.674,4.893 -3.687,5.772 -0.896,0.345 -1.347,0.695 -1.353,1.053 -0.122,-0.002 -0.182,-0.003 -0.304,-0.005 0.004,-0.195 -0.114,-0.458 -0.35,-0.788 -2.118,0.679 -3.669,0.999 -4.642,0.974 -0.122,-0.003 -0.183,-0.005 -0.304,-0.008 -2.141,-0.416 -3.349,-0.637 -3.632,-0.646 -0.007,0.215 -0.01,0.322 -0.018,0.537 0.14,0.22 0.209,0.33 0.348,0.549 -0.268,-0.009 -0.402,-0.013 -0.669,-0.022 -0.018,0.527 -0.027,0.791 -0.045,1.317 -0.005,0.163 -0.13,0.241 -0.374,0.233 -0.034,0.976 2.17,1.601 6.616,1.799 0.078,0.229 1.068,0.595 2.983,1.085 -0.002,0.117 -0.003,0.175 -0.005,0.293 0.123,0.002 0.184,0.003 0.307,0.005 0.952,-0.701 1.855,-1.046 2.712,-1.036 0.785,0.009 1.177,0.013 1.961,0.02 2.201,0.539 3.429,0.801 3.674,0.801 3.599,-0.156 5.601,-0.26 6.01,-0.263 0.936,0.421 1.404,0.631 2.344,1.049"
             style="fill:#231f20;fill-opacity:1;fill-rule:nonzero;stroke:none"
             id="path6843" /></g><g
           id="g6845"
           transform="translate(766.0039,976.5601)"><path
             d="M 0,0 C 0.248,-0.041 0.371,-0.061 0.619,-0.102 L 0.443,-1.161 c -0.224,0.036 -0.555,0.008 -0.994,-0.086 -0.077,0.231 -0.116,0.346 -0.193,0.577 0.015,0.096 0.023,0.144 0.039,0.241 C -0.573,-0.088 -0.337,0.055 0,0 m -30.862,-19.358 c 0.966,-0.498 1.556,-0.761 1.772,-0.786 1.066,0.078 1.904,0.079 2.519,0.007 0.28,-0.033 0.421,-0.05 0.701,-0.083 0.973,-0.115 1.423,-0.466 1.351,-1.048 -0.47,-0.27 -0.974,-0.374 -1.512,-0.31 -0.504,0.06 -0.947,0.161 -1.331,0.304 -0.73,-0.014 -1.454,0.019 -2.172,0.099 -0.065,0.008 -0.097,0.011 -0.161,0.018 -0.361,0.04 -1.231,0.383 -2.618,1.021 -0.455,0.048 -0.681,0.072 -1.134,0.118 -0.216,0.023 -0.313,0.148 -0.289,0.374 1.148,0.118 1.723,0.175 2.874,0.286 m 43.954,42.976 c 4.063,-1.726 6.296,-3.246 6.739,-4.493 1.246,-0.242 2.151,-2.331 2.678,-6.256 C 22.7,12.83 22.781,12.73 22.748,12.571 22.558,11.632 22.462,11.164 22.271,10.225 22.148,9.619 22.212,8.694 22.138,7.811 22.034,6.579 18.72,5.837 12.753,5.854 9.403,7.47 7.825,8.911 8.057,10.226 c -0.267,0.047 -0.483,0.613 -0.649,1.7 0.444,1.179 0.728,2.121 0.852,2.826 0.037,0.212 0.055,0.318 0.093,0.53 -0.719,1.579 -2.507,2.736 -5.042,3.032 -0.337,0.04 -1.864,-0.631 -4.497,-2 -0.899,0.075 -3.528,-1.068 -6.338,-3.587 -2.08,-1.863 -3.926,-3.945 -5.524,-5.14 -0.029,-0.212 -0.044,-0.319 -0.073,-0.532 -0.103,-0.742 0.011,-1.464 0.339,-2.166 -0.601,-1.266 -0.975,-2.463 -1.13,-3.592 -0.089,-0.646 -0.084,-1.451 0.012,-2.417 -0.529,-0.783 -0.876,-1.803 -1.048,-3.061 -0.578,-4.227 0.621,-6.535 3.592,-6.966 2.398,-0.347 3.596,-0.528 5.992,-0.904 0.183,-0.029 0.998,0.026 2.449,0.155 0.373,-0.061 0.561,-0.091 0.934,-0.152 2.784,-0.456 4.654,-2.665 5.559,-6.595 l -0.137,-0.769 c -0.244,-0.321 -0.378,-0.562 -0.407,-0.722 -0.346,0.061 -0.519,0.092 -0.865,0.152 -0.776,0.664 -1.567,1.108 -2.25,1.18 -0.724,0.076 -1.463,-0.398 -2.057,-1.29 -0.18,0.03 -0.481,-0.002 -0.904,-0.098 -3.625,1.815 -6.217,2.844 -7.684,3.077 -0.214,0.034 -1.078,-0.383 -2.569,-1.255 -0.347,0.05 -0.52,0.075 -0.867,0.123 0.051,0.355 -0.524,1.243 -1.734,2.658 -0.372,0.051 -0.557,0.076 -0.928,0.127 -1.899,-0.072 -3.877,-0.62 -5.917,-1.646 -1.224,0.512 -2.093,0.796 -2.6,0.856 -2.482,0.295 -3.724,0.435 -6.21,0.699 -0.762,0.081 -1.7,-0.263 -2.803,-1.035 -0.778,0.635 -2.377,1.499 -4.813,2.571 -0.545,0.474 -0.796,0.955 -0.752,1.441 0.643,0.596 1.224,1.508 1.745,2.736 0.584,0.305 2.518,0.573 5.809,0.756 0.02,0.195 0.637,0.23 1.852,0.1 2.518,-0.269 3.776,-0.411 6.29,-0.711 1.047,0.334 1.63,0.966 1.745,1.904 0.139,1.131 -0.007,2.707 0.155,4.016 0.159,1.282 0.669,2.674 0.788,3.644 -0.21,1.698 -0.266,3.754 -0.164,6.169 0.984,1.456 1.514,2.456 1.583,3.006 -0.284,1.149 -0.388,2.047 -0.309,2.694 0.111,0.905 0.492,1.319 1.146,1.238 -0.127,5.888 -0.523,8.872 -1.147,8.946 -0.398,0.048 -0.597,0.071 -0.996,0.118 -2.734,0.321 -4.864,0.371 -6.387,0.172 -0.76,0.198 -1.14,0.296 -1.902,0.492 -0.258,0.026 -0.387,0.04 -0.644,0.065 -0.862,0.087 -2.249,0.046 -4.157,-0.135 -1.451,0.494 -2.132,1.257 -2.039,2.295 0.756,3.135 2.605,4.576 5.531,4.287 0.895,-0.402 1.342,-0.604 2.233,-1.01 1.612,0.162 3.133,0.163 4.554,0.005 0.379,-0.043 0.568,-0.064 0.947,-0.107 7.708,-1.131 11.419,-2.738 11.171,-4.577 1.283,-1.422 2.346,-2.194 3.205,-2.315 1.521,-0.214 3.281,0.699 5.312,2.733 0.157,-0.024 2.896,0.111 8.247,0.285 -0.026,-0.161 0.059,-0.256 0.255,-0.289 0.043,0.257 0.4,0.462 1.071,0.614 1.415,-0.236 2.121,-0.357 3.534,-0.602 0.903,-0.157 2.096,-0.268 3.583,-0.337"
             style="fill:#231f20;fill-opacity:1;fill-rule:nonzero;stroke:none"
             id="path6847" /></g><g
           id="g6849"
           transform="translate(820.8779,982.2676)"><path
             d="m 0,0 c -1.098,0.325 -1.6,0.658 -1.509,1.005 -3.905,0.655 -6.351,0.688 -7.333,0.161 -3.765,1.137 -7.115,-0.218 -9.635,-3.964 -2.201,-3.273 -1.152,-5.348 3.046,-5.99 0.45,0.059 0.786,0.061 1.011,0.007 -0.01,-0.367 0.168,-0.611 0.534,-0.734 0.372,-0.131 0.558,-0.196 0.929,-0.328 2.551,-0.728 3.872,-0.917 3.969,-0.539 0.223,-0.056 0.311,-0.18 0.262,-0.369 0.668,-0.089 1.002,-0.135 1.67,-0.226 0.644,-0.187 0.965,-0.28 1.608,-0.468 0.737,-0.375 1.105,-0.563 1.842,-0.94 1.566,0.056 3.447,-0.147 5.637,-0.617 0.208,0.178 2.13,0.044 5.767,-0.462 0.032,0.112 0.049,0.169 0.081,0.281 0.145,0.5 0.124,0.778 -0.062,0.831 0.762,0.127 1.144,0.189 1.908,0.313 -0.252,1.213 -0.379,1.819 -0.637,3.032 0.175,2.153 -0.844,3.856 -3.067,5.086 0.264,0.941 0.396,1.411 0.66,2.352 C 5.48,-0.592 4.65,-0.056 4.247,0.067 3.732,0.225 2.394,0.187 0.272,-0.123 0.163,-0.074 0.108,-0.049 0,0 M 2.001,7.959 C 2.55,7.615 5.278,6.651 7.374,5.336 8.708,4.5 9.778,2.616 10.304,1.418 10.112,1.472 9.99,1.405 9.937,1.217 c 0.434,0.08 0.767,0.086 0.998,0.02 1.026,-0.598 2.106,-1.945 3.219,-4.037 3.533,-3.112 4.23,-8.025 2.175,-14.684 -0.527,-1.712 -2.62,-2.49 -6.266,-2.394 -0.566,0.27 -0.849,0.405 -1.417,0.673 -2.46,0.722 -4.847,0.74 -7.135,0.06 -1.396,0.39 -2.207,0.526 -2.434,0.42 -0.713,0.567 -1.366,0.93 -1.954,1.088 -0.951,-0.188 -1.426,-0.284 -2.375,-0.477 -1.231,0.697 -2.089,1.106 -2.567,1.23 -0.443,0.114 -1.573,0.307 -3.391,0.565 -1.885,1.383 -3.83,2.53 -5.369,2.783 -1.871,0.307 -3.292,-0.272 -3.494,-1.128 -0.828,0.462 -1.368,0.152 -1.619,-0.926 -0.834,-0.743 -0.079,-2.423 0.421,-4.161 0.789,-2.74 2.741,-5.419 4.121,-6.364 0.422,-0.29 2.072,-1.697 4.832,-3.178 -0.066,-0.253 0.324,-0.776 0.988,-1.063 1.524,-0.66 4.559,-0.639 8.003,-0.474 1.219,-0.337 2.651,0.31 4.321,1.935 0.36,-0.102 1.702,0.18 4.043,0.821 -0.046,-0.157 0.04,-0.266 0.256,-0.329 0.027,0.093 0.041,0.14 0.069,0.234 -0.216,0.063 -0.298,0.189 -0.243,0.376 0.694,0.124 1.042,0.185 1.737,0.306 -0.055,-0.188 0.007,-0.308 0.188,-0.361 0.066,0.224 0.101,0.337 0.167,0.562 0.954,-0.282 1.431,-0.424 2.385,-0.711 0.985,-0.907 1.27,-2.034 0.862,-3.373 -0.068,-0.224 -0.103,-0.337 -0.171,-0.561 -0.505,-1.651 -2.35,-2.512 -5.521,-2.63 -1.339,-0.862 -2.547,-1.375 -3.632,-1.537 -0.197,0.199 -0.295,0.299 -0.491,0.497 -0.039,-0.131 -0.057,-0.197 -0.095,-0.328 0.213,-0.061 0.297,-0.171 0.252,-0.327 -1.458,-0.123 -4.044,-0.042 -7.752,0.189 -0.341,0.092 -0.511,0.138 -0.852,0.23 -0.209,0.158 -0.312,0.236 -0.521,0.394 -0.057,-0.208 -0.084,-0.312 -0.14,-0.519 -0.702,0.188 -1.054,0.282 -1.757,0.468 -2.618,1.299 -8.221,1.94 -10.519,3.567 -0.754,0.534 -2.218,2.575 -4.273,4.02 0.125,0.538 -0.923,2.676 -3.232,6.389 -0.895,2.165 -1.276,5.597 -1.155,10.301 0.692,3.208 1.038,4.812 1.73,8.021 1.65,3.442 3.019,5.76 4.086,6.96 2.204,1.083 3.795,2.308 4.76,3.692 6.168,2.339 16.13,3.452 20.826,0.503"
             style="fill:#231f20;fill-opacity:1;fill-rule:nonzero;stroke:none"
             id="path6851" /></g><g
           id="g6853"
           transform="translate(858.5937,978.8579)"><path
             d="m 0,0 c 2.218,-1.08 3.27,-3.417 2.646,-5.2 -0.107,-0.307 -1.041,-1.637 -2.779,-3.999 -1.496,-6.719 -1.62,-11.02 -1.012,-12.634 0.584,-1.552 -0.477,-4.429 -0.463,-5.953 0.007,-0.811 1.156,-1.917 2.16,-2.28 0.283,0.043 0.425,0.064 0.708,0.107 -0.078,-0.215 -0.029,-0.354 0.151,-0.419 0.607,0.436 0.995,0.884 1.163,1.343 0.146,0.397 0.404,1.378 0.771,2.943 2.229,2.064 4.37,3.599 6.414,4.608 0.46,1.226 0.689,1.838 1.149,3.064 1.796,2.666 3.852,3.566 6.142,2.685 2.186,-2.691 2.83,-5.122 1.98,-7.272 0.402,-0.159 0.469,-0.571 0.205,-1.237 -0.181,0.072 -0.308,0.017 -0.38,-0.165 0.109,-0.043 0.164,-0.064 0.273,-0.107 0.071,0.182 0.217,0.229 0.434,0.142 0.21,-1.694 -0.046,-3.749 -0.762,-6.164 1.005,-0.401 0.761,-2.657 -0.734,-6.76 -0.08,-0.199 -0.121,-0.299 -0.201,-0.498 -0.076,-0.391 0.045,-0.65 0.364,-0.779 0.338,-0.137 0.507,-0.206 0.846,-0.344 0.741,-0.303 2.726,1.543 6.006,5.505 0.309,1.247 0.606,2.216 0.894,2.909 1.495,0.154 2.552,0.505 3.168,1.059 0.166,0.397 0.25,0.595 0.416,0.991 0.142,0.64 0.212,0.96 0.353,1.601 1.49,1.316 2.317,2.151 2.47,2.511 0.349,0.828 0.524,1.242 0.875,2.07 -0.295,4.296 -0.41,6.599 -0.285,6.899 0.045,0.109 0.067,0.163 0.113,0.271 0.362,0.872 3.062,0.563 8.084,-1.043 1.821,-0.789 2.731,-1.188 4.548,-1.994 2.214,-1.482 2.762,-3.451 1.661,-5.883 -0.215,-0.476 -1.848,-0.625 -4.884,-0.49 -0.119,-0.268 -0.665,-0.418 -1.637,-0.453 0.067,0.149 0.008,0.264 -0.173,0.344 0.022,-0.245 0.033,-0.367 0.056,-0.612 -1.834,-1.007 -3.102,-2.34 -3.818,-3.981 -0.831,0.362 -2.194,-2.461 -4.597,-5.727 -0.815,-1.109 -1.902,-1.628 -2.329,-1.445 -0.038,-0.09 -0.058,-0.135 -0.096,-0.225 0.107,-0.045 0.16,-0.068 0.266,-0.114 0.064,0.15 0.203,0.179 0.416,0.087 -0.038,-0.089 -0.058,-0.134 -0.096,-0.224 -0.725,-0.611 -1.885,-1.991 -3.469,-4.148 -0.221,-1.004 -0.421,-1.716 -0.6,-2.135 -0.28,0.12 -1.666,-1.272 -4.127,-4.192 -0.45,0.19 -1.629,-1.294 -3.519,-4.457 -0.309,0.129 -1.506,-0.358 -3.572,-1.48 -0.511,0.337 -0.766,0.505 -1.278,0.841 -0.6,0.118 -0.9,0.177 -1.5,0.293 -1.683,0.682 -1.925,4.915 -0.839,12.745 0.708,0.667 1.137,1.181 1.279,1.544 0.16,1.442 -0.407,3.12 -1.721,5.024 0.039,0.802 0.058,1.203 0.095,2.005 -0.107,0.041 -0.161,0.062 -0.268,0.103 -2.112,0.392 -3.385,-0.001 -3.822,-1.158 -0.253,-0.671 -0.472,-1.841 -0.658,-3.512 -2.791,-2.113 -4.484,-4.039 -5.122,-5.748 -0.057,-0.541 -0.087,-0.812 -0.146,-1.353 -2.273,-2.455 -4.12,-3.421 -5.579,-2.89 -0.938,0.34 -2.083,0.165 -3.426,-0.532 -1.562,0.558 -2.037,2.465 -1.441,5.742 -0.14,0.049 -0.288,0.583 -0.444,1.603 0.289,0.83 0.434,1.245 0.723,2.076 0.353,1.015 0.224,3.079 -0.427,6.193 0.073,0.215 0.383,0.463 0.539,0.693 0.351,0.517 1.385,5.281 1.367,11.661 -0.012,4.25 -0.581,8.623 -0.406,11.926 -1.498,1.007 -2.795,2.881 -3.923,5.632 0.124,0.391 0.187,0.587 0.312,0.978 0.079,0.247 0.729,0.52 1.957,0.81 -0.05,-0.155 0.018,-0.262 0.21,-0.324 C -8.989,2.1 -4.654,2.267 0,0"
             style="fill:#231f20;fill-opacity:1;fill-rule:nonzero;stroke:none"
             id="path6855" /></g><g
           id="g6857"
           transform="translate(926.6758,894.3394)"><path
             d="M 0,0 C 0.276,-0.342 0.494,-0.559 0.657,-0.651 0.6,-0.753 0.57,-0.804 0.513,-0.906 0.337,-1.218 0.086,-1.283 -0.236,-1.101 c -0.329,0.186 -0.494,0.279 -0.825,0.464 -0.355,0.2 -0.445,0.456 -0.27,0.768 C -0.799,0.08 -0.533,0.054 0,0 m 20.087,41.661 c 0.596,-0.331 0.892,-0.497 1.487,-0.83 -0.222,-0.398 -0.087,-0.735 0.407,-1.014 -0.335,-0.596 -0.502,-0.894 -0.836,-1.49 -0.591,0.333 -0.887,0.499 -1.48,0.829 -0.6,0.335 -0.749,0.939 -0.447,1.815 0.468,0.261 0.759,0.49 0.869,0.69 m -3.622,26.077 c 2.644,-1.376 4.92,-4.201 6.747,-8.453 -0.056,-0.103 -0.084,-0.155 -0.14,-0.258 -0.824,-0.294 -2.196,-2.358 -4.033,-3.927 -1.588,-1.358 -4.229,-1.445 -6.007,-0.508 -0.182,-0.346 -1.88,0.263 -5.104,1.777 -2.675,2.585 -3.391,5.905 -1.733,8.444 2.416,3.698 6.619,4.823 10.27,2.925 M 3.629,55.219 C 9.145,52.422 11.197,49.668 9.844,47.105 9.85,46.859 9.854,46.735 9.86,46.488 9.25,45.595 8.946,45.148 8.337,44.254 8.16,42.542 7.816,41.213 7.312,40.264 5.344,36.553 4.359,34.697 2.391,30.986 1.292,28.914 0.413,26.109 -0.714,24.392 c -0.379,-0.578 -1.367,-1.837 -2.344,-3.678 -1.588,-2.992 -1.188,-4.97 0.628,-6.098 1.281,-0.795 2.794,-1.849 4.455,-2.767 0.121,-0.067 0.18,-0.1 0.299,-0.166 C 2.689,11.481 3.672,11.142 5.273,10.654 7.57,8.84 8.602,7.735 8.392,7.369 8.667,7.346 8.805,7.334 9.081,7.311 9.647,5.934 10.044,4.762 10.273,3.801 8.931,2.471 7.766,1.697 6.774,1.48 c -6.83,4.316 -10.917,6.993 -12.14,8.281 -1.678,0.682 -2.717,1.121 -3.114,1.332 -0.428,0.632 -0.891,1.079 -1.389,1.341 -1.295,0.68 -1.943,1.018 -3.24,1.688 -1.965,1.014 -4.785,1.757 -8.439,2.186 -0.704,0.929 -1.493,1.607 -2.364,2.032 -0.663,0.323 -0.995,0.484 -1.66,0.806 -1.826,0.845 -2.805,1.127 -2.931,0.863 -3.314,2.477 -4.607,4.531 -3.83,6.216 1.05,2.277 5.296,2.392 9.927,-0.525 0.552,-0.348 1.457,-0.977 2.646,-1.56 0.912,-0.099 1.368,-0.149 2.281,-0.252 0.628,-0.421 0.943,-0.632 1.57,-1.055 l 0.254,-0.127 c 2.573,-1.289 5.003,0.295 7.301,4.79 0.24,-0.122 0.667,0.244 1.28,1.101 0.219,0.986 0.328,1.479 0.545,2.465 0.089,0.175 0.318,0.368 0.689,0.58 0.06,0.116 0.107,0.855 0.422,1.595 0.733,1.72 1.954,3.043 2.162,3.449 0.212,0.726 0.318,1.088 0.529,1.814 1.293,1.058 2.085,1.859 2.369,2.41 0.295,0.573 0.442,0.86 0.736,1.434 1.637,3.186 0.419,5.271 -1.031,6.555 -0.258,0.229 -0.599,0.685 -1.029,0.901 -1.267,0.374 -1.901,0.558 -3.169,0.924 -0.796,0.503 -1.196,0.753 -1.995,1.253 -2.555,1.067 -4.005,1.558 -4.342,1.502 -1.132,1.156 -1.472,2.217 -1.012,3.188 1.026,1.136 1.852,1.842 2.478,2.122 -0.109,0.051 -0.164,0.078 -0.272,0.129 0.363,0.765 2.276,0.461 5.728,-0.971 0.115,0.234 0.928,0.147 2.442,-0.273 0.291,-0.144 1.105,-0.744 2.434,-1.81 1.207,-0.254 1.812,-0.383 3.019,-0.645"
             style="fill:#231f20;fill-opacity:1;fill-rule:nonzero;stroke:none"
             id="path6859" /></g><g
           id="g6861"
           transform="translate(1023.457,878.8975)"><path
             d="M 0,0 C 0.097,-0.078 0.145,-0.117 0.24,-0.196 0.682,-0.767 0.624,-1.393 0.068,-2.073 -0.067,-2.24 -0.136,-2.323 -0.271,-2.489 -0.416,-2.666 -1.141,-2.64 -2.442,-2.42 -2.591,-2.173 -2.666,-2.05 -2.814,-1.803 -1.292,-0.313 -0.353,0.288 0,0 m -24.869,-5.378 c 0.533,-0.738 0.72,-1.21 0.561,-1.416 -0.474,-0.293 -1.149,-0.102 -2.028,0.568 -0.314,0.241 -0.362,0.502 -0.145,0.788 0.058,0.077 0.088,0.116 0.147,0.194 0.158,0.207 0.646,0.163 1.465,-0.134 m -1.906,36.373 c 0.949,-1.102 2.722,-2.683 5.304,-4.78 1.595,-2.83 1.738,-5.121 0.472,-6.857 0.265,-0.194 0.191,-2.015 -0.261,-5.448 0.428,-0.519 0.382,-1.133 -0.141,-1.84 -0.195,-0.262 -1.013,-0.647 -2.452,-1.163 -0.621,-1.525 -0.658,-2.49 -0.106,-2.901 -0.186,-0.251 -0.279,-0.376 -0.465,-0.627 -2,-0.867 -3.805,-2.409 -5.427,-4.611 -1.314,-1.784 -3.033,-3.914 -5.152,-6.397 0.139,-0.248 0.208,-0.372 0.346,-0.62 0.303,-0.224 0.454,-0.335 0.756,-0.56 -0.698,-0.31 -1.046,-0.465 -1.742,-0.776 0.753,-0.558 1.029,-1.433 0.824,-2.621 1.566,-0.763 2.22,-1.321 1.966,-1.659 -0.313,-0.416 0.337,-2.344 1.888,-5.797 0.492,-1.777 0.692,-2.717 0.612,-2.819 -0.059,-0.078 -0.089,-0.116 -0.149,-0.193 -2.448,-0.574 -4.922,0.103 -7.46,2.017 -0.117,-0.156 -0.267,-0.165 -0.451,-0.027 -0.77,0.824 -1.462,1.464 -2.075,1.92 -0.568,0.277 -0.851,0.414 -1.419,0.688 -0.595,1.574 -1.162,2.555 -1.687,2.938 -0.501,0.366 -0.752,0.548 -1.253,0.912 -0.125,0.09 -0.951,0.027 -2.475,-0.2 -0.863,1.151 -1.296,1.725 -2.168,2.87 -0.573,0.263 -0.858,0.393 -1.431,0.653 -0.834,1.266 -1.615,2.148 -2.334,2.648 -0.302,0.21 -0.452,0.314 -0.753,0.523 -0.188,0.129 -0.338,0.114 -0.448,-0.047 -0.33,0.663 -0.653,1.103 -0.967,1.319 0.121,0.177 0.183,0.266 0.304,0.443 1.804,2.632 3.485,3.417 5.036,2.338 1.16,0.185 2.766,-0.078 4.812,-0.808 2.848,0.337 5.22,1.798 7.096,4.42 1.117,1.562 2.681,3.034 3.867,4.379 0.969,1.098 1.394,3.412 1.305,6.273 1,0.647 1.588,1.088 1.758,1.327 0.692,2.226 1.135,4.189 1.332,5.884 -0.667,0.471 -1.491,1.81 -2.497,4.017 -0.201,0.14 -0.416,0.407 -0.641,0.801 -3.252,0.113 -5.812,0.454 -7.702,1.06 -4.324,-0.112 -6.745,-0.632 -7.3,-1.476 -0.716,-1.088 -1.987,-1.418 -3.81,-1.006 -0.147,0.212 -0.22,0.318 -0.367,0.531 -0.017,-0.246 -0.026,-0.369 -0.042,-0.614 -2.175,-0.566 -3.81,-1.722 -4.92,-3.447 -0.169,-0.263 -0.254,-0.394 -0.423,-0.658 -0.303,-0.688 -0.455,-1.032 -0.759,-1.72 -0.099,0.064 -0.147,0.096 -0.246,0.16 -0.15,-0.927 -0.226,-1.39 -0.378,-2.316 0.401,-0.027 -0.27,0.412 -2.017,1.3 0.337,0.527 0.506,0.79 0.843,1.317 0.141,0.219 0.569,0.274 1.288,0.159 0.264,-0.17 0.416,-0.695 0.454,-1.572 -0.402,-0.624 -0.604,-0.936 -1.007,-1.56 -0.329,-1.299 -0.531,-2.003 -0.602,-2.113 -0.995,-0.751 -1.607,-1.306 -1.836,-1.661 1.34,-2.769 2.933,-5.609 4.769,-8.528 0.012,-0.644 0.018,-0.966 0.029,-1.609 -2.153,-1.965 -3.965,-2.454 -5.451,-1.467 -0.667,0.56 -1.002,0.839 -1.671,1.397 -1.758,0.297 -2.905,0.613 -3.445,0.963 -1.58,1.877 -2.685,3.004 -3.291,3.389 -3.245,1.673 -5.495,2.352 -6.049,2.519 -2.788,0.837 -4.995,4.088 -4.955,6.15 0.16,0.269 0.24,0.403 0.4,0.672 0.25,0.419 1.9,1.39 4.988,2.872 1.553,-1.356 2.437,-2.111 2.666,-2.252 1.76,-0.354 3.292,-0.253 4.598,0.314 0.444,0.713 0.667,1.07 1.11,1.783 0.104,0.166 0.073,0.301 -0.091,0.403 1.729,1.608 2.832,2.781 3.297,3.527 1.977,3.166 2.965,4.749 4.942,7.914 0.207,0.332 0.303,0.676 0.29,1.029 0.888,0.674 1.773,1.484 2.651,2.432 0.283,0.953 0.425,1.429 0.706,2.383 1.001,0.872 1.502,1.307 2.506,2.176 0.142,1.295 -0.03,2.248 -0.514,2.857 -0.124,0.078 -0.186,0.116 -0.31,0.193 -0.9,0.56 -1.883,0.63 -2.947,0.215 -0.432,0.074 -0.853,0.237 -1.268,0.491 -2.676,3.547 -3.944,5.522 -3.729,5.963 0.22,0.369 0.33,0.554 0.55,0.924 0.6,1.007 3.424,0.537 7.067,-1.821 1.314,-0.85 2.201,-1.741 2.568,-2.161 0.24,0.233 0.519,0.253 0.832,0.057 0.126,-0.078 0.189,-0.117 0.314,-0.196 3.397,-2.928 4.637,-5.095 3.777,-6.439 -0.524,-2.18 -0.449,-3.486 0.233,-3.928 0.949,-0.242 1.422,-0.364 2.37,-0.61 -0.107,-0.164 -0.058,-0.313 0.147,-0.446 0.063,0.098 0.096,0.147 0.16,0.245 -0.204,0.134 -0.263,0.269 -0.173,0.405 0.307,-0.2 2.485,0.306 5.38,0.255 4.374,-0.077 7.588,-1.23 7.895,-1.441 1.364,-0.934 2.946,-1.81 4.749,-2.633"
             style="fill:#231f20;fill-opacity:1;fill-rule:nonzero;stroke:none"
             id="path6863" /></g><g
           id="g6865"
           transform="translate(1027.375,868.9888)"><path
             d="m 0,0 c -0.604,-0.717 -0.905,-1.076 -1.509,-1.793 -1.594,-1.894 -1.365,-5.431 0.553,-10.627 1.461,-1.956 2.945,-3.767 4.409,-4.91 2.649,-2.068 4.664,-3.117 5.117,-3.221 0.176,0.192 2.017,0.089 5.546,-0.378 0.593,0.462 0.89,0.693 1.485,1.154 1.444,1.565 2.167,2.347 3.612,3.911 0.596,0.646 0.716,2.09 0.337,4.335 1.56,1.706 0.789,3.47 -0.455,5.103 -0.713,0.935 -1.08,2.504 -1.293,3.655 -0.321,0.285 -0.481,0.428 -0.801,0.712 C 14.473,-0.16 11.988,0.563 10.517,0.839 8.195,1.274 5.456,1.756 3.29,0.735 2.363,0.677 1.9,0.646 0.976,0.583 0.598,0.519 0.272,0.324 0,0 m -6.021,-30.935 c -1.237,1.325 -2.226,2.309 -2.96,2.956 -0.065,-0.074 -0.097,-0.11 -0.162,-0.184 -0.714,1.324 -1.429,2.294 -2.139,2.911 -0.088,0.077 -0.133,0.116 -0.222,0.192 -0.443,0.386 -1.05,0.672 -1.815,0.86 -1.452,1.406 -2.182,2.105 -3.646,3.494 -1.014,0.857 -2.819,1.162 -4.899,0.601 -1.737,-0.469 -3.784,-1.029 -5.911,-1.267 -0.136,-0.166 -0.204,-0.249 -0.34,-0.416 -0.082,-0.1 -0.348,-0.577 -0.798,-1.43 -0.149,0.122 -0.273,0.119 -0.376,-0.007 0.32,-3.712 1.443,-6.383 3.418,-8.05 -0.483,-0.573 0.503,-2.434 2.902,-5.63 -0.063,-0.074 -0.095,-0.111 -0.159,-0.185 0.143,-0.123 0.269,-0.124 0.374,-10e-4 0.339,-0.766 0.851,-1.448 1.535,-2.047 8.708,-6.621 13.186,-9.945 13.652,-9.445 4.528,-2.448 7.124,-3.391 7.801,-2.687 0.565,0.587 1.979,0.833 4.253,0.71 0.689,0.149 1.136,0.326 1.341,0.536 0.613,0.629 -0.173,2.271 -2.39,4.885 0.169,3.529 -2.039,6.666 -3.791,9.05 -0.915,1.246 -1.434,2.776 -1.842,3.147 -0.297,0.271 -0.446,0.405 -0.743,0.675 -0.467,0.424 -1.497,0.871 -3.083,1.332 M 17.776,2.929 c 1.626,-1.116 4.257,-4.816 7.601,-10.06 -0.066,-0.073 -0.1,-0.108 -0.165,-0.181 -0.156,0.144 -0.3,0.143 -0.432,-10e-4 0.155,-0.142 0.299,-0.143 0.432,10e-4 0.63,-0.739 0.944,-1.109 1.571,-1.852 0.113,-0.104 0.168,-0.155 0.279,-0.259 5.126,-2.319 8.01,-3.865 8.657,-4.486 1.201,-1.154 1.799,-1.734 2.993,-2.899 1.591,-1.552 2.095,-4.041 1.479,-7.429 -1.308,-1.914 -2.23,-3.133 -2.759,-3.662 -2.057,1.824 -3.525,2.281 -4.392,1.4 -0.377,0.371 -0.565,0.556 -0.942,0.926 -0.32,1.653 -0.482,2.48 -0.814,4.134 -0.401,1.521 -0.527,2.363 -0.37,2.528 -1.805,1.103 -3.64,0.664 -5.501,-1.295 -0.56,-0.59 -1.447,-1.342 -2.658,-2.257 -0.255,-0.486 -0.382,-0.728 -0.638,-1.214 -4.388,-3.419 -7.16,-4.583 -8.346,-3.47 -0.201,-0.214 -1.845,0.626 -4.943,2.456 -3.669,0.011 -5.714,0.187 -6.16,0.589 -0.238,0.216 -0.844,0.982 -1.823,2.292 -1.405,0.992 -2.108,1.483 -3.516,2.46 -1.332,3.032 -2.369,4.845 -3.068,5.445 -1.124,2.381 -1.855,3.697 -2.161,3.956 -1.215,0.302 -1.991,0.59 -2.329,0.873 0.125,0.15 0.113,0.289 -0.042,0.418 -0.075,-0.091 -0.112,-0.135 -0.188,-0.226 0.154,-0.128 0.179,-0.255 0.074,-0.38 -0.766,0.642 -2.469,0.79 -5.089,0.416 -0.135,-0.166 -0.204,-0.249 -0.34,-0.415 -0.828,-1.006 -1.145,-2.578 -0.969,-4.713 -0.182,0.151 -0.324,0.163 -0.429,0.038 0.333,-0.275 0.49,-1.105 0.465,-2.484 0.047,-0.252 0.913,-1.205 2.584,-2.879 3.048,-1.178 4.572,-1.782 7.622,-3.022 2.381,-2.368 3.563,-3.562 5.912,-5.973 0.828,-0.266 1.581,-0.708 2.258,-1.325 5.331,-7.024 7.565,-10.955 6.957,-11.59 1.16,-2.06 1.606,-4.222 1.344,-6.47 -0.236,-0.07 -0.353,-0.106 -0.588,-0.177 0.085,-0.083 0.127,-0.124 0.212,-0.207 0.113,0.116 0.255,0.092 0.424,-0.074 0.288,-1.513 -1.004,-3.716 -3.865,-6.612 -0.869,-0.88 -1.607,-1.02 -2.216,-0.422 -0.05,-0.251 -0.077,-0.377 -0.127,-0.628 -1.923,-0.849 -3.739,-1.051 -5.452,-0.613 -0.468,0.454 -2.223,1.186 -5.259,2.14 -1.658,1.575 -3.139,2.112 -4.425,1.62 -0.439,0.142 -0.74,0.29 -0.906,0.445 -0.455,1.179 -0.867,1.935 -1.228,2.269 -0.221,-0.24 -2.512,1.529 -6.942,5.166 -0.065,-0.073 -0.097,-0.109 -0.162,-0.183 -5.503,5.204 -8.168,7.881 -7.852,8.254 -0.265,0.071 -0.398,0.107 -0.662,0.177 -0.028,0.665 -3.738,3.178 -5.514,6.312 -0.484,0.855 -0.062,3.422 -0.287,5.02 -0.215,1.526 -0.597,3.154 0.113,4.045 0.149,-0.119 0.274,-0.114 0.375,0.013 -0.474,0.38 -0.164,1.257 0.931,2.632 0.268,0.337 0.401,0.505 0.67,0.841 1.095,1.376 3.205,2.528 6.359,3.413 1.256,0.2 2.091,0.548 2.501,1.055 -0.416,2.896 -0.064,5.24 1.125,6.56 2.931,3.252 5.578,4.521 6.769,3.766 2.658,0.16 3.991,0.231 6.667,0.353 0.137,0.166 0.205,0.248 0.342,0.414 0.558,0.679 0.988,2.057 1.272,4.141 1.816,2.089 4.789,3.991 8.965,5.645 0.353,0.426 1.61,0.548 3.781,0.342 0.648,0.774 2.478,0.291 5.478,-1.503 0.549,0.644 2.542,-0.358 5.944,-3.078 0.085,0.098 0.707,-0.039 1.403,-0.516"
             style="fill:#231f20;fill-opacity:1;fill-rule:nonzero;stroke:none"
             id="path6867" /></g><g
           id="g6869"
           transform="translate(1082.7207,784.7456)"><path
             d="M 0,0 -2.792,21.64 19.566,24.524 22.357,2.885 0,0 z"
             style="fill:#58595b;fill-opacity:1;fill-rule:nonzero;stroke:none"
             id="path6871" /></g><g
           id="g6873"
           transform="translate(1082.7207,784.7456)"><path
             d="M 0,0 -2.792,21.64 19.566,24.524 22.357,2.885 0,0 z"
             style="fill:none;stroke:#58595b;stroke-opacity:1;stroke-width:0.25;stroke-linecap:butt;stroke-linejoin:miter;stroke-miterlimit:10;stroke-dasharray:none"
             id="path6875" /></g><g
           id="g6877"
           transform="translate(1073.6406,805.5742)"><path
             d="m 0,0 -16.431,-21.298 c 0,0 -0.416,-18.797 6.294,-24.009 l 8.311,9.911 6.401,16.453 C 4.575,-18.943 6.21,-1.33 0,0"
             style="fill:#58595b;fill-opacity:1;fill-rule:nonzero;stroke:none"
             id="path6879" /></g><g
           id="g6881"
           transform="translate(1073.6406,805.5742)"><path
             d="m 0,0 -16.431,-21.298 c 0,0 -0.416,-18.797 6.294,-24.009 l 8.311,9.911 6.401,16.453 C 4.575,-18.943 6.21,-1.33 0,0 z"
             style="fill:none;stroke:#58595b;stroke-opacity:1;stroke-width:0.25;stroke-linecap:butt;stroke-linejoin:miter;stroke-miterlimit:10;stroke-dasharray:none"
             id="path6883" /></g><g
           id="g6885"
           transform="translate(1086.1494,813.2256)"><path
             d="m 0,0 30.844,0.427 13.174,5.251 -0.452,3.494 -14.84,7.674 -13.09,-1.688 C 15.636,15.158 0.181,9.612 0,0"
             style="fill:#58595b;fill-opacity:1;fill-rule:nonzero;stroke:none"
             id="path6887" /></g><g
           id="g6889"
           transform="translate(1086.1494,813.2256)"><path
             d="m 0,0 30.844,0.427 13.174,5.251 -0.452,3.494 -14.84,7.674 -13.09,-1.688 C 15.636,15.158 0.181,9.612 0,0 z"
             style="fill:none;stroke:#58595b;stroke-opacity:1;stroke-width:0.25;stroke-linecap:butt;stroke-linejoin:miter;stroke-miterlimit:10;stroke-dasharray:none"
             id="path6891" /></g><g
           id="g6893"
           transform="translate(1138.457,790.4956)"><path
             d="m 0,0 9.976,-5.816 0.541,-4.192 -9.075,-1.171 -5.27,5.003 L -4.55,-0.587 0,0 z"
             style="fill:#808184;fill-opacity:1;fill-rule:nonzero;stroke:none"
             id="path6895" /></g><g
           id="g6897"
           transform="translate(1138.457,790.4956)"><path
             d="m 0,0 9.976,-5.816 0.541,-4.192 -9.075,-1.171 -5.27,5.003 L -4.55,-0.587 0,0 z"
             style="fill:none;stroke:#58595b;stroke-opacity:1;stroke-width:0.25;stroke-linecap:butt;stroke-linejoin:miter;stroke-miterlimit:10;stroke-dasharray:none"
             id="path6899" /></g><g
           id="g6901"
           transform="translate(1141.0664,770.2734)"><path
             d="m 0,0 -0.717,5.55 -10.961,7.82 -5.962,4.913 -5.589,-0.721 2.164,-16.769 7.083,-2.597 L 0,0 z"
             style="fill:#808184;fill-opacity:1;fill-rule:nonzero;stroke:none"
             id="path6903" /></g><g
           id="g6905"
           transform="translate(1141.0664,770.2734)"><path
             d="m 0,0 -0.717,5.55 -10.961,7.82 -5.962,4.913 -5.589,-0.721 2.164,-16.769 7.083,-2.597 L 0,0 z"
             style="fill:none;stroke:#58595b;stroke-opacity:1;stroke-width:0.25;stroke-linecap:butt;stroke-linejoin:miter;stroke-miterlimit:10;stroke-dasharray:none"
             id="path6907" /></g><g
           id="g6909"
           transform="translate(1114.7266,745.8809)"><path
             d="m 0,0 0.891,21.109 -13.704,3.875 -3.475,-6.091 C -16.288,18.893 -6.908,1.24 0,0"
             style="fill:#808184;fill-opacity:1;fill-rule:nonzero;stroke:none"
             id="path6911" /></g><g
           id="g6913"
           transform="translate(1114.7266,745.8809)"><path
             d="m 0,0 0.891,21.109 -13.704,3.875 -3.475,-6.091 C -16.288,18.893 -6.908,1.24 0,0 z"
             style="fill:none;stroke:#58595b;stroke-opacity:1;stroke-width:0.25;stroke-linecap:butt;stroke-linejoin:miter;stroke-miterlimit:10;stroke-dasharray:none"
             id="path6915" /></g><g
           id="g6917"
           transform="translate(1126.8066,740.3364)"><path
             d="m 0,0 1.082,-8.384 c 0,0 -10.36,-1.754 -14.701,8.048 l 4.48,2.353 0.388,5.733 15.95,-4.335 5.806,0.394 -2.84,22.008 10.649,2.794 9.906,-7.956 -1.743,-5.552 -8.106,-0.69 5.713,-8.497 2.208,-17.118 -12.195,0.929 L 0,0 z"
             style="fill:#a6a8ab;fill-opacity:1;fill-rule:nonzero;stroke:none"
             id="path6919" /></g><g
           id="g6921"
           transform="translate(1126.8066,740.3364)"><path
             d="m 0,0 1.082,-8.384 c 0,0 -10.36,-1.754 -14.701,8.048 l 4.48,2.353 0.388,5.733 15.95,-4.335 5.806,0.394 -2.84,22.008 10.649,2.794 9.906,-7.956 -1.743,-5.552 -8.106,-0.69 5.713,-8.497 2.208,-17.118 -12.195,0.929 L 0,0 z"
             style="fill:none;stroke:#58595b;stroke-opacity:1;stroke-width:0.25;stroke-linecap:butt;stroke-linejoin:miter;stroke-miterlimit:10;stroke-dasharray:none"
             id="path6923" /></g><g
           id="g6925"
           transform="translate(1103.9639,738.4551)"><path
             d="m 0,0 2.029,6.299 -0.766,5.939 -7.088,2.637 C -5.825,14.875 -12.79,8.294 0,0"
             style="fill:#808184;fill-opacity:1;fill-rule:nonzero;stroke:none"
             id="path6927" /></g><g
           id="g6929"
           transform="translate(1103.9639,738.4551)"><path
             d="m 0,0 2.029,6.299 -0.766,5.939 -7.088,2.637 C -5.825,14.875 -12.79,8.294 0,0 z"
             style="fill:none;stroke:#58595b;stroke-opacity:1;stroke-width:0.25;stroke-linecap:butt;stroke-linejoin:miter;stroke-miterlimit:10;stroke-dasharray:none"
             id="path6931" /></g><g
           id="g6933"
           transform="translate(1080.1592,781.1987)"><path
             d="m 0,0 3.606,-18.318 c 0,0 2.887,-5.81 11.391,-6.206 L 12.855,-7.931 7.286,2.716 0,0 z"
             style="fill:#58595b;fill-opacity:1;fill-rule:nonzero;stroke:none"
             id="path6935" /></g><g
           id="g6937"
           transform="translate(1080.1592,781.1987)"><path
             d="m 0,0 3.606,-18.318 c 0,0 2.887,-5.81 11.391,-6.206 L 12.855,-7.931 7.286,2.716 0,0 z"
             style="fill:none;stroke:#58595b;stroke-opacity:1;stroke-width:0.25;stroke-linecap:butt;stroke-linejoin:miter;stroke-miterlimit:10;stroke-dasharray:none"
             id="path6939" /></g><g
           id="g6941"
           transform="translate(1092.0684,780.6045)"><path
             d="M 0,0 21.622,-7.421 19.245,11.006 14.146,13.443 15.531,2.708 0,0 z"
             style="fill:#808184;fill-opacity:1;fill-rule:nonzero;stroke:none"
             id="path6943" /></g><g
           id="g6945"
           transform="translate(1092.0684,780.6045)"><path
             d="M 0,0 21.622,-7.421 19.245,11.006 14.146,13.443 15.531,2.708 0,0 z"
             style="fill:none;stroke:#58595b;stroke-opacity:1;stroke-width:0.25;stroke-linecap:butt;stroke-linejoin:miter;stroke-miterlimit:10;stroke-dasharray:none"
             id="path6947" /></g><g
           id="g6949"
           transform="translate(1117.6514,767.2524)"><path
             d="m 0,0 1.718,-13.314 14.254,-7.218 3.473,0.448 L 17.552,-5.412 11.635,-2.09 0,0 z"
             style="fill:#a6a8ab;fill-opacity:1;fill-rule:nonzero;stroke:none"
             id="path6951" /></g><g
           id="g6953"
           transform="translate(1117.6514,767.2524)"><path
             d="m 0,0 1.718,-13.314 14.254,-7.218 3.473,0.448 L 17.552,-5.412 11.635,-2.09 0,0 z"
             style="fill:none;stroke:#58595b;stroke-opacity:1;stroke-width:0.25;stroke-linecap:butt;stroke-linejoin:miter;stroke-miterlimit:10;stroke-dasharray:none"
             id="path6955" /></g><g
           id="g6957"
           transform="translate(1104.7598,805.3267)"><path
             d="m 0,0 10.645,1.373 c 0,0 15.099,-6.931 18.007,-12.948 l -5.264,-4.586 c 0,0 -12.676,0.495 -13.691,2.851 C 8.684,-10.955 0.334,-8.152 0,0"
             style="fill:#58595b;fill-opacity:1;fill-rule:nonzero;stroke:none"
             id="path6959" /></g><g
           id="g6961"
           transform="translate(1104.7598,805.3267)"><path
             d="m 0,0 10.645,1.373 c 0,0 15.099,-6.931 18.007,-12.948 l -5.264,-4.586 c 0,0 -12.676,0.495 -13.691,2.851 C 8.684,-10.955 0.334,-8.152 0,0 z"
             style="fill:none;stroke:#58595b;stroke-opacity:1;stroke-width:0.25;stroke-linecap:butt;stroke-linejoin:miter;stroke-miterlimit:10;stroke-dasharray:none"
             id="path6963" /></g><g
           id="g6965"
           transform="translate(1117.5537,811.2393)"><path
             d="m 0,0 13.379,1.726 c 0,0 5.747,-6.007 8.029,-8.554 2.282,-2.547 -6.412,-3.976 -6.412,-3.976 0,0 -13.072,6.08 -14.996,10.804"
             style="fill:#58595b;fill-opacity:1;fill-rule:nonzero;stroke:none"
             id="path6967" /></g><g
           id="g6969"
           transform="translate(1117.5537,811.2393)"><path
             d="m 0,0 13.379,1.726 c 0,0 5.747,-6.007 8.029,-8.554 2.282,-2.547 -6.412,-3.976 -6.412,-3.976 0,0 -13.072,6.08 -14.996,10.804 z"
             style="fill:none;stroke:#58595b;stroke-opacity:1;stroke-width:0.25;stroke-linecap:butt;stroke-linejoin:miter;stroke-miterlimit:10;stroke-dasharray:none"
             id="path6971" /></g><g
           id="g6973"
           transform="translate(1073.9287,768.0532)"><path
             d="m 0,0 c 0,0 -1.188,-12.317 1.791,-13.886 2.98,-1.569 9.843,-2.46 9.843,-2.46 L 8.89,-7.465 5.526,3.466 C 5.526,3.466 2.61,5.042 0,0"
             style="fill:#58595b;fill-opacity:1;fill-rule:nonzero;stroke:none"
             id="path6975" /></g><g
           id="g6977"
           transform="translate(1073.9287,768.0532)"><path
             d="m 0,0 c 0,0 -1.188,-12.317 1.791,-13.886 2.98,-1.569 9.843,-2.46 9.843,-2.46 L 8.89,-7.465 5.526,3.466 C 5.526,3.466 2.61,5.042 0,0 z"
             style="fill:none;stroke:#58595b;stroke-opacity:1;stroke-width:0.25;stroke-linecap:butt;stroke-linejoin:miter;stroke-miterlimit:10;stroke-dasharray:none"
             id="path6979" /></g><g
           id="g6981"
           transform="translate(265.3794,808.3999)"><path
             d="M 0,0 21.326,4.609 26.088,-17.425 4.762,-22.034 0,0 z"
             style="fill:#58595b;fill-opacity:1;fill-rule:nonzero;stroke:none"
             id="path6983" /></g><g
           id="g6985"
           transform="translate(265.3794,808.3999)"><path
             d="M 0,0 21.326,4.609 26.088,-17.425 4.762,-22.034 0,0 z"
             style="fill:none;stroke:#58595b;stroke-opacity:1;stroke-width:0.25;stroke-linecap:butt;stroke-linejoin:miter;stroke-miterlimit:10;stroke-dasharray:none"
             id="path6987" /></g><g
           id="g6989"
           transform="translate(285.3662,819.2065)"><path
             d="m 0,0 -22.609,14.573 c 0,0 -18.765,-1.172 -23.392,-8.298 l 10.577,-7.444 16.935,-4.989 c 0,0 17.688,-0.141 18.489,6.158"
             style="fill:#58595b;fill-opacity:1;fill-rule:nonzero;stroke:none"
             id="path6991" /></g><g
           id="g6993"
           transform="translate(285.3662,819.2065)"><path
             d="m 0,0 -22.609,14.573 c 0,0 -18.765,-1.172 -23.392,-8.298 l 10.577,-7.444 16.935,-4.989 c 0,0 17.688,-0.141 18.489,6.158 z"
             style="fill:none;stroke:#58595b;stroke-opacity:1;stroke-width:0.25;stroke-linecap:butt;stroke-linejoin:miter;stroke-miterlimit:10;stroke-dasharray:none"
             id="path6995" /></g><g
           id="g6997"
           transform="translate(294.0469,807.3882)"><path
             d="m 0,0 3.03,-30.697 6.345,-12.683 3.443,0.744 6.394,15.436 -2.788,12.901 C 16.424,-14.299 9.593,0.632 0,0"
             style="fill:#58595b;fill-opacity:1;fill-rule:nonzero;stroke:none"
             id="path6999" /></g><g
           id="g7001"
           transform="translate(294.0469,807.3882)"><path
             d="m 0,0 3.03,-30.697 6.345,-12.683 3.443,0.744 6.394,15.436 -2.788,12.901 C 16.424,-14.299 9.593,0.632 0,0 z"
             style="fill:none;stroke:#58595b;stroke-opacity:1;stroke-width:0.25;stroke-linecap:butt;stroke-linejoin:miter;stroke-miterlimit:10;stroke-dasharray:none"
             id="path7003" /></g><g
           id="g7005"
           transform="translate(275.8149,753.3481)"><path
             d="m 0,0 -4.953,-10.431 -4.131,-0.893 -1.933,8.943 4.539,5.674 5.509,1.191 L 0,0 z"
             style="fill:#808184;fill-opacity:1;fill-rule:nonzero;stroke:none"
             id="path7007" /></g><g
           id="g7009"
           transform="translate(275.8149,753.3481)"><path
             d="m 0,0 -4.953,-10.431 -4.131,-0.893 -1.933,8.943 4.539,5.674 5.509,1.191 L 0,0 z"
             style="fill:none;stroke:#58595b;stroke-opacity:1;stroke-width:0.25;stroke-linecap:butt;stroke-linejoin:miter;stroke-miterlimit:10;stroke-dasharray:none"
             id="path7011" /></g><g
           id="g7013"
           transform="translate(255.8853,749.041)"><path
             d="m 0,0 5.47,1.182 6.866,11.583 4.393,6.355 -1.191,5.508 L -0.988,21.057 -2.978,13.78 0,0 z"
             style="fill:#808184;fill-opacity:1;fill-rule:nonzero;stroke:none"
             id="path7015" /></g><g
           id="g7017"
           transform="translate(255.8853,749.041)"><path
             d="m 0,0 5.47,1.182 6.866,11.583 4.393,6.355 -1.191,5.508 L -0.988,21.057 -2.978,13.78 0,0 z"
             style="fill:none;stroke:#58595b;stroke-opacity:1;stroke-width:0.25;stroke-linecap:butt;stroke-linejoin:miter;stroke-miterlimit:10;stroke-dasharray:none"
             id="path7019" /></g><g
           id="g7021"
           transform="translate(229.356,773.2271)"><path
             d="m 0,0 21.109,0.895 2.703,13.981 -6.362,2.949 C 17.45,17.825 0.652,6.988 0,0"
             style="fill:#808184;fill-opacity:1;fill-rule:nonzero;stroke:none"
             id="path7023" /></g><g
           id="g7025"
           transform="translate(229.356,773.2271)"><path
             d="m 0,0 21.109,0.895 2.703,13.981 -6.362,2.949 C 17.45,17.825 0.652,6.988 0,0 z"
             style="fill:none;stroke:#58595b;stroke-opacity:1;stroke-width:0.25;stroke-linecap:butt;stroke-linejoin:miter;stroke-miterlimit:10;stroke-dasharray:none"
             id="path7027" /></g><g
           id="g7029"
           transform="translate(224.8511,760.7217)"><path
             d="m 0,0 -8.263,-1.786 c 0,0 -2.621,10.175 6.778,15.328 l 2.724,-4.265 5.744,0.097 -2.972,-16.26 0.883,-5.751 21.689,4.688 3.684,-10.375 -7.091,-10.542 -5.68,1.268 -1.372,8.019 L 8.14,-25.99 -8.73,-29.635 -8.835,-17.405 0,0 z"
             style="fill:#a6a8ab;fill-opacity:1;fill-rule:nonzero;stroke:none"
             id="path7031" /></g><g
           id="g7033"
           transform="translate(224.8511,760.7217)"><path
             d="m 0,0 -8.263,-1.786 c 0,0 -2.621,10.175 6.778,15.328 l 2.724,-4.265 5.744,0.097 -2.972,-16.26 0.883,-5.751 21.689,4.688 3.684,-10.375 -7.091,-10.542 -5.68,1.268 -1.372,8.019 L 8.14,-25.99 -8.73,-29.635 -8.835,-17.405 0,0 z"
             style="fill:none;stroke:#58595b;stroke-opacity:1;stroke-width:0.25;stroke-linecap:butt;stroke-linejoin:miter;stroke-miterlimit:10;stroke-dasharray:none"
             id="path7035" /></g><g
           id="g7037"
           transform="translate(221.0479,783.3232)"><path
             d="m 0,0 6.448,-1.489 5.853,1.265 2.029,7.285 C 14.33,7.061 7.185,13.445 0,0"
             style="fill:#808184;fill-opacity:1;fill-rule:nonzero;stroke:none"
             id="path7039" /></g><g
           id="g7041"
           transform="translate(221.0479,783.3232)"><path
             d="m 0,0 6.448,-1.489 5.853,1.265 2.029,7.285 C 14.33,7.061 7.185,13.445 0,0 z"
             style="fill:none;stroke:#58595b;stroke-opacity:1;stroke-width:0.25;stroke-linecap:butt;stroke-linejoin:miter;stroke-miterlimit:10;stroke-dasharray:none"
             id="path7043" /></g><g
           id="g7045"
           transform="translate(261.6289,810.6528)"><path
             d="m 0,0 -17.948,-5.14 c 0,0 -5.546,-3.367 -5.222,-11.874 L -6.817,-13.479 3.321,-7.03 0,0 z"
             style="fill:#58595b;fill-opacity:1;fill-rule:nonzero;stroke:none"
             id="path7047" /></g><g
           id="g7049"
           transform="translate(261.6289,810.6528)"><path
             d="m 0,0 -17.948,-5.14 c 0,0 -5.546,-3.367 -5.222,-11.874 L -6.817,-13.479 3.321,-7.03 0,0 z"
             style="fill:none;stroke:#58595b;stroke-opacity:1;stroke-width:0.25;stroke-linecap:butt;stroke-linejoin:miter;stroke-miterlimit:10;stroke-dasharray:none"
             id="path7051" /></g><g
           id="g7053"
           transform="translate(262.042,798.7358)"><path
             d="m 0,0 -5.569,-22.171 18.161,3.925 1.998,5.286 L 4.009,-15.247 0,0 z"
             style="fill:#808184;fill-opacity:1;fill-rule:nonzero;stroke:none"
             id="path7055" /></g><g
           id="g7057"
           transform="translate(262.042,798.7358)"><path
             d="m 0,0 -5.569,-22.171 18.161,3.925 1.998,5.286 L 4.009,-15.247 0,0 z"
             style="fill:none;stroke:#58595b;stroke-opacity:1;stroke-width:0.25;stroke-linecap:butt;stroke-linejoin:miter;stroke-miterlimit:10;stroke-dasharray:none"
             id="path7059" /></g><g
           id="g7061"
           transform="translate(250.8984,772.1167)"><path
             d="m 0,0 -13.122,-2.836 -5.988,-14.812 0.74,-3.423 14.46,3.125 2.809,6.176 L 0,0 z"
             style="fill:#a6a8ab;fill-opacity:1;fill-rule:nonzero;stroke:none"
             id="path7063" /></g><g
           id="g7065"
           transform="translate(250.8984,772.1167)"><path
             d="m 0,0 -13.122,-2.836 -5.988,-14.812 0.74,-3.423 14.46,3.125 2.809,6.176 L 0,0 z"
             style="fill:none;stroke:#58595b;stroke-opacity:1;stroke-width:0.25;stroke-linecap:butt;stroke-linejoin:miter;stroke-miterlimit:10;stroke-dasharray:none"
             id="path7067" /></g><g
           id="g7069"
           transform="translate(287.7476,788.1782)"><path
             d="m 0,0 2.268,-10.491 c 0,0 -5.632,-15.632 -11.382,-19.036 l -5.014,4.858 c 0,0 -0.577,12.672 1.684,13.882 C -10.183,-9.578 -8.095,-1.022 0,0"
             style="fill:#58595b;fill-opacity:1;fill-rule:nonzero;stroke:none"
             id="path7071" /></g><g
           id="g7073"
           transform="translate(287.7476,788.1782)"><path
             d="m 0,0 2.268,-10.491 c 0,0 -5.632,-15.632 -11.382,-19.036 l -5.014,4.858 c 0,0 -0.577,12.672 1.684,13.882 C -10.183,-9.578 -8.095,-1.022 0,0 z"
             style="fill:none;stroke:#58595b;stroke-opacity:1;stroke-width:0.25;stroke-linecap:butt;stroke-linejoin:miter;stroke-miterlimit:10;stroke-dasharray:none"
             id="path7075" /></g><g
           id="g7077"
           transform="translate(294.7192,775.9292)"><path
             d="m 0,0 2.85,-13.186 c 0,0 -5.5,-6.234 -7.845,-8.723 -2.345,-2.488 -4.504,6.054 -4.504,6.054 0,0 4.955,13.539 9.499,15.855"
             style="fill:#58595b;fill-opacity:1;fill-rule:nonzero;stroke:none"
             id="path7079" /></g><g
           id="g7081"
           transform="translate(294.7192,775.9292)"><path
             d="m 0,0 2.85,-13.186 c 0,0 -5.5,-6.234 -7.845,-8.723 -2.345,-2.488 -4.504,6.054 -4.504,6.054 0,0 4.955,13.539 9.499,15.855 z"
             style="fill:none;stroke:#58595b;stroke-opacity:1;stroke-width:0.25;stroke-linecap:butt;stroke-linejoin:miter;stroke-miterlimit:10;stroke-dasharray:none"
             id="path7083" /></g><g
           id="g7085"
           transform="translate(248.0039,815.7515)"><path
             d="m 0,0 c 0,0 -12.374,0.144 -13.685,-2.958 -1.312,-3.101 -1.62,-10.015 -1.62,-10.015 l 8.617,3.484 10.608,4.275 c 0,0 1.325,3.039 -3.92,5.214"
             style="fill:#58595b;fill-opacity:1;fill-rule:nonzero;stroke:none"
             id="path7087" /></g><g
           id="g7089"
           transform="translate(248.0039,815.7515)"><path
             d="m 0,0 c 0,0 -12.374,0.144 -13.685,-2.958 -1.312,-3.101 -1.62,-10.015 -1.62,-10.015 l 8.617,3.484 10.608,4.275 c 0,0 1.325,3.039 -3.92,5.214 z"
             style="fill:none;stroke:#58595b;stroke-opacity:1;stroke-width:0.25;stroke-linecap:butt;stroke-linejoin:miter;stroke-miterlimit:10;stroke-dasharray:none"
             id="path7091" /></g><path
           d="m 878.814,363.185 -418.041,0 0,82.069 418.041,0 0,-82.069 z"
           style="fill:#ffffff;fill-opacity:1;fill-rule:nonzero;stroke:none"
           id="path7093" /></g></g><text
       transform="matrix(1,0,0,-1,293.9531,193.0996)"
       id="text7095"><tspan
         style="fill:#232323;fill-opacity:1;fill-rule:nonzero;stroke:none;font-family:Tox Typewriter;font-variant:normal;font-weight:normal;font-stretch:normal;font-size:84.634;writing-mode:lr;-inkscape-font-specification:ToxTypewriter"
         x="0 44.348216 67.199396 111.547612 165.713372 186.702604 228.93497 267.951244 308.9141 331.680646 562.562198 604.70993 648.211806 669.201038 710.840966 759.251614"
         y="0"
         sodipodi:role="line"
         id="tspan7097">6,6% Vol. 35 IBU</tspan></text>
<g
       id="g7099"><g
         id="g7101"
         clip-path="url(#clipPath7103)"><path
           d="m 1370.585,428.321 -1373.31,0 0,165.413 1373.31,0 0,-165.413 z"
           style="fill:#323031;fill-opacity:1;fill-rule:nonzero;stroke:none"
           id="path7107" /></g></g><text
       transform="matrix(1,0,0,-1,189.8154,476.5635)"
       id="text7109"><tspan
         style="fill:#ffffff;fill-opacity:1;fill-rule:nonzero;stroke:none;font-family:Tox Typewriter;font-variant:normal;font-weight:normal;font-stretch:normal;font-size:115.41;writing-mode:lr;-inkscape-font-specification:ToxTypewriter"
         x="0 64.51419 128.22051 184.07895 239.93739 301.79715 355.00116 418.36125 470.64198 526.38501 590.09133 642.37206 697.76886 761.24436 789.86604 846.64776 911.16195"
         y="0"
         sodipodi:role="line"
         id="tspan7111">PullToRefresh IPA</tspan></text>
<text
       transform="matrix(1,0,0,-1,318,63.8164)"
       id="text7113"><tspan
         style="fill:#231f20;fill-opacity:1;fill-rule:nonzero;stroke:none;font-family:Tox Typewriter;font-variant:normal;font-weight:normal;font-stretch:normal;font-size:61.552;writing-mode:lr;-inkscape-font-specification:ToxTypewriter"
         x="0 34.653776 62.536832 96.02112 111.286016 147.540144 182.994096 216.293728 246.084896 278.461248 313.9152 343.891024 359.15592 389.439504 424.893456 454.86928 482.383024 514.759376 530.024272 564.43184 596.808192 626.59936 654.482416 669.747312 701.631248 731.422416"
         y="0"
         sodipodi:role="line"
         id="tspan7115">New England India Pale Ale</tspan></text>
<text
       transform="matrix(1,0,0,-1,188.4854,341.6592)"
       id="text7117"><tspan
         style="fill:#231f20;fill-opacity:1;fill-rule:nonzero;stroke:none;font-family:Tox Typewriter;font-variant:normal;font-weight:normal;font-stretch:normal;font-size:60;writing-mode:lr;-inkscape-font-specification:ToxTypewriter"
         x="0 36.54 68.1 100.56 135.12 168.24 203.58 218.46 242.1 256.98 288.96 315.78 344.58 377.7 409.26 424.14 447.78 462.66 498 527.04 541.92 574.8 602.46 635.58 667.14 696.36 724.02 738.9 762.54 777.42 807.72 840.84 876.18 911.52 938.34"
         y="0"
         sodipodi:role="line"
         id="tspan7119">Magnum | Citra | El Dorado | Summit</tspan></text>
</g></svg>